<svg width="96" height="137" viewBox="0 0 96 137" fill="none" xmlns="http://www.w3.org/2000/svg">
<path d="M62.135 78.7177C58.5293 78.7177 55.4407 77.4483 52.8691 74.9096C50.2976 72.3709 49.0118 69.2881 49.0118 65.6615C49.0118 61.9645 50.2905 58.8108 52.848 56.2006C55.4056 53.5904 58.5111 52.2853 62.1647 52.2853C63.4756 52.2853 64.794 52.6226 66.1199 53.2971C67.4459 53.9716 68.6569 54.6461 69.7529 55.3206V17H91V25.7265H75.4441V65.6912C75.4441 69.3097 74.1502 72.3854 71.5622 74.9182C68.9744 77.4512 65.832 78.7177 62.135 78.7177ZM5 57.3441V51.6529H38.2618V57.3441H5ZM5 40.0176V34.3265H55.0824V40.0176H5ZM5 22.6912V17H55.0824V22.6912H5Z" fill="white"/>
<path d="M14.5879 131L17.9754 113.5H19.5879L24.3129 125.925L29.0254 113.5H30.6379L34.0379 131H31.9004L29.4379 118.3L25.0004 130.05H23.6129L19.1754 118.3L16.7254 131H14.5879ZM41.4502 131.325C40.3002 131.325 39.2502 131.029 38.3002 130.437C37.3585 129.846 36.6044 129.054 36.0377 128.062C35.4794 127.062 35.2002 125.958 35.2002 124.75C35.2002 123.833 35.3627 122.979 35.6877 122.187C36.0127 121.387 36.4585 120.687 37.0252 120.087C37.6002 119.479 38.2669 119.004 39.0252 118.662C39.7835 118.321 40.5919 118.15 41.4502 118.15C42.3919 118.15 43.2544 118.342 44.0377 118.725C44.8294 119.1 45.5044 119.625 46.0627 120.3C46.6294 120.975 47.0502 121.758 47.3252 122.65C47.6085 123.542 47.7127 124.496 47.6377 125.512H37.4377C37.5377 126.221 37.771 126.854 38.1377 127.412C38.5044 127.962 38.971 128.4 39.5377 128.725C40.1127 129.05 40.7502 129.217 41.4502 129.225C42.2002 129.225 42.8794 129.033 43.4877 128.65C44.096 128.258 44.5877 127.725 44.9627 127.05L47.1002 127.55C46.6002 128.658 45.846 129.567 44.8377 130.275C43.8294 130.975 42.7002 131.325 41.4502 131.325ZM37.3752 123.862H45.5252C45.4585 123.162 45.2335 122.525 44.8502 121.95C44.4669 121.367 43.9794 120.9 43.3877 120.55C42.796 120.2 42.1502 120.025 41.4502 120.025C40.7502 120.025 40.1085 120.196 39.5252 120.537C38.9419 120.879 38.4585 121.342 38.0752 121.925C37.7002 122.5 37.4669 123.146 37.3752 123.862ZM59.7334 112.25H61.8334V131H59.7334V128.875C59.3084 129.608 58.7376 130.2 58.0209 130.65C57.3042 131.1 56.4626 131.325 55.4959 131.325C54.5876 131.325 53.7376 131.154 52.9459 130.812C52.1542 130.471 51.4542 130 50.8459 129.4C50.2459 128.792 49.7751 128.092 49.4334 127.3C49.0917 126.508 48.9209 125.658 48.9209 124.75C48.9209 123.842 49.0917 122.992 49.4334 122.2C49.7751 121.4 50.2459 120.7 50.8459 120.1C51.4542 119.492 52.1542 119.017 52.9459 118.675C53.7376 118.333 54.5876 118.162 55.4959 118.162C56.4626 118.162 57.3042 118.387 58.0209 118.837C58.7376 119.287 59.3084 119.879 59.7334 120.612V112.25ZM55.5209 129.287C56.3459 129.287 57.0584 129.087 57.6584 128.687C58.2667 128.279 58.7334 127.729 59.0584 127.037C59.3917 126.346 59.5584 125.583 59.5584 124.75C59.5584 123.9 59.3917 123.133 59.0584 122.45C58.7251 121.758 58.2542 121.212 57.6459 120.812C57.0459 120.404 56.3376 120.2 55.5209 120.2C54.6959 120.2 53.9459 120.404 53.2709 120.812C52.6042 121.221 52.0709 121.771 51.6709 122.462C51.2709 123.146 51.0709 123.908 51.0709 124.75C51.0709 125.592 51.2751 126.358 51.6834 127.05C52.0917 127.733 52.6334 128.279 53.3084 128.687C53.9834 129.087 54.7209 129.287 55.5209 129.287ZM64.832 118.5H66.932V131H64.832V118.5ZM65.907 116.462C65.5737 116.462 65.2945 116.354 65.0695 116.137C64.8445 115.921 64.732 115.65 64.732 115.325C64.732 115 64.8445 114.729 65.0695 114.512C65.2945 114.296 65.5695 114.187 65.8945 114.187C66.2195 114.187 66.4945 114.296 66.7195 114.512C66.9445 114.729 67.057 115 67.057 115.325C67.057 115.65 66.9445 115.921 66.7195 116.137C66.5029 116.354 66.232 116.462 65.907 116.462ZM79.8137 118.5H81.9137V131H79.8137L79.7262 128.887C79.3345 129.612 78.7928 130.2 78.1012 130.65C77.4178 131.1 76.6012 131.325 75.6512 131.325C74.7345 131.325 73.8762 131.154 73.0762 130.812C72.2762 130.462 71.5678 129.983 70.9512 129.375C70.3428 128.758 69.8678 128.05 69.5262 127.25C69.1845 126.45 69.0137 125.587 69.0137 124.662C69.0137 123.771 69.1803 122.929 69.5137 122.137C69.847 121.346 70.3095 120.654 70.9012 120.062C71.5012 119.462 72.1928 118.996 72.9762 118.662C73.7595 118.321 74.6012 118.15 75.5012 118.15C76.4845 118.15 77.347 118.383 78.0887 118.85C78.8303 119.308 79.4303 119.904 79.8887 120.637L79.8137 118.5ZM75.6137 129.287C76.4387 129.287 77.1512 129.087 77.7512 128.687C78.3595 128.279 78.8262 127.729 79.1512 127.037C79.4845 126.346 79.6512 125.583 79.6512 124.75C79.6512 123.9 79.4845 123.133 79.1512 122.45C78.8178 121.758 78.347 121.212 77.7387 120.812C77.1387 120.404 76.4303 120.2 75.6137 120.2C74.7887 120.2 74.0387 120.404 73.3637 120.812C72.6887 121.221 72.1512 121.771 71.7512 122.462C71.3595 123.146 71.1637 123.908 71.1637 124.75C71.1637 125.592 71.3678 126.358 71.7762 127.05C72.1845 127.733 72.7262 128.279 73.4012 128.687C74.0762 129.087 74.8137 129.287 75.6137 129.287Z" fill="white"/>
</svg>
