<svg width="48" height="48" viewBox="0 0 48 48" fill="none" xmlns="http://www.w3.org/2000/svg">
<path d="M24.4387 43C23.7532 43 23.1754 42.7559 22.7052 42.2678C22.2351 41.7797 22 41.1929 22 40.5074C22 39.8219 22.2441 39.2441 22.7322 38.774C23.2203 38.3038 23.8071 38.0687 24.4926 38.0687C25.1781 38.0687 25.7559 38.3128 26.226 38.8009C26.6962 39.289 26.9313 39.8758 26.9313 40.5613C26.9313 41.2468 26.6872 41.8246 26.1991 42.2948C25.711 42.7649 25.1242 43 24.4387 43ZM24.4387 26.4656C23.7532 26.4656 23.1754 26.2216 22.7052 25.7334C22.2351 25.2453 22 24.6585 22 23.973C22 23.2876 22.2441 22.7098 22.7322 22.2396C23.2203 21.7694 23.8071 21.5344 24.4926 21.5344C25.1781 21.5344 25.7559 21.7784 26.226 22.2666C26.6962 22.7547 26.9313 23.3415 26.9313 24.027C26.9313 24.7124 26.6872 25.2902 26.1991 25.7604C25.711 26.2306 25.1242 26.4656 24.4387 26.4656ZM24.4387 9.9313C23.7532 9.9313 23.1754 9.68722 22.7052 9.19907C22.2351 8.71097 22 8.12417 22 7.43867C22 6.75322 22.2441 6.17541 22.7322 5.70525C23.2203 5.23508 23.8071 5 24.4926 5C25.1781 5 25.7559 5.24407 26.226 5.73222C26.6962 6.22033 26.9313 6.80713 26.9313 7.49263C26.9313 8.17808 26.6872 8.75589 26.1991 9.22605C25.711 9.69622 25.1242 9.9313 24.4387 9.9313Z" fill="white"/>
</svg>
