<svg width="48" height="48" viewBox="0 0 48 48" fill="none" xmlns="http://www.w3.org/2000/svg">
<path d="M22.2401 38.0449L22.2391 38.044C18.9137 34.9981 16.2108 32.4311 14.1255 30.34C12.0453 28.2539 10.4428 26.4571 9.29867 24.9443L9.29865 24.9443C8.15834 23.4366 7.44075 22.1324 7.07559 21.0249L7.07557 21.0248C6.69203 19.8618 6.5 18.6627 6.5 17.4213C6.5 14.8832 7.36689 12.8022 9.11509 11.0826C10.8636 9.36257 12.9948 8.5 15.6068 8.5C16.8615 8.5 18.1251 8.78125 19.4094 9.36941L19.4095 9.36942C20.6884 9.95509 21.8556 10.7952 22.9125 11.9077L24 13.0526L25.0876 11.9077C26.1444 10.7952 27.3117 9.95509 28.5906 9.36942L28.5906 9.36941C29.8749 8.78125 31.1385 8.5 32.3932 8.5C35.0053 8.5 37.1364 9.36257 38.8849 11.0826C40.6331 12.8022 41.5 14.8832 41.5 17.4213C41.5 18.6627 41.308 19.8618 40.9245 21.0249L40.9245 21.0249C40.5593 22.1324 39.8417 23.4366 38.7014 24.9443L39.8977 25.8491L38.7014 24.9443C37.5566 26.4579 35.9565 28.2552 33.8819 30.3415C31.8041 32.431 29.0995 34.9969 25.7629 38.0422L25.7599 38.0449L24 39.6598L22.2401 38.0449Z" stroke="white" stroke-width="3"/>
</svg>
