<svg width="64" height="64" viewBox="0 0 64 64" fill="none" xmlns="http://www.w3.org/2000/svg">
<path d="M32 42.8C35 42.8 37.55 41.75 39.65 39.65C41.75 37.55 42.8 35 42.8 32C42.8 29 41.75 26.45 39.65 24.35C37.55 22.25 35 21.2 32 21.2C29 21.2 26.45 22.25 24.35 24.35C22.25 26.45 21.2 29 21.2 32C21.2 35 22.25 37.55 24.35 39.65C26.45 41.75 29 42.8 32 42.8ZM32 34.4C31.32 34.4 30.75 34.17 30.29 33.71C29.83 33.25 29.6 32.68 29.6 32C29.6 31.32 29.83 30.75 30.29 30.29C30.75 29.83 31.32 29.6 32 29.6C32.68 29.6 33.25 29.83 33.71 30.29C34.17 30.75 34.4 31.32 34.4 32C34.4 32.68 34.17 33.25 33.71 33.71C33.25 34.17 32.68 34.4 32 34.4ZM32 56C28.68 56 25.56 55.37 22.64 54.11C19.72 52.85 17.18 51.14 15.02 48.98C12.86 46.82 11.15 44.28 9.89 41.36C8.63 38.44 8 35.32 8 32C8 28.68 8.63 25.56 9.89 22.64C11.15 19.72 12.86 17.18 15.02 15.02C17.18 12.86 19.72 11.15 22.64 9.89C25.56 8.63 28.68 8 32 8C35.32 8 38.44 8.63 41.36 9.89C44.28 11.15 46.82 12.86 48.98 15.02C51.14 17.18 52.85 19.72 54.11 22.64C55.37 25.56 56 28.68 56 32C56 35.32 55.37 38.44 54.11 41.36C52.85 44.28 51.14 46.82 48.98 48.98C46.82 51.14 44.28 52.85 41.36 54.11C38.44 55.37 35.32 56 32 56Z" fill="white"/>
</svg>
