<svg width="48" height="48" viewBox="0 0 48 48" fill="none" xmlns="http://www.w3.org/2000/svg">
<path d="M42.6205 34.1723C42.8965 34.6036 43 35.0522 43 35.5352C43 36.1908 42.7757 36.7256 42.2582 37.1569C41.7406 37.5881 41.1713 37.7779 40.5158 37.7779H36.2374L24.7479 17.0761H23.2987L11.8092 37.7779H7.44459C6.63377 37.7779 5.96096 37.4329 5.42616 36.7083C4.89136 35.9838 4.85686 35.1902 5.3399 34.3276L21.9186 6.19036C22.4534 5.37953 23.1607 5 24.0233 5C24.9376 5 25.6105 5.37953 26.0417 6.19036L42.6205 34.1723ZM11.5677 41.763L24.0233 19.4568L36.4789 41.763L35.2368 42.9534L24.0233 38.3645L12.7063 42.9534L11.5677 41.763Z" fill="white"/>
</svg>
