<svg width="257" height="169" viewBox="0 0 257 169" fill="none" xmlns="http://www.w3.org/2000/svg">
<g opacity="0.6">
<g opacity="0.6">
<path d="M124.956 83.4759L128.5 86.8824L131.808 83.7108C136.581 79.3157 140.834 75.34 144.566 71.7836C137.247 68.1436 132.224 60.635 132.224 51.963C132.224 39.7242 142.229 29.8027 154.571 29.8027C161.164 29.8027 167.09 32.6342 171.181 37.1379C171.394 35.7693 171.5 34.3787 171.5 32.9659C171.5 26.9361 169.315 21.7676 164.944 17.4606C160.573 13.1535 155.316 11 149.173 11C145.55 11 141.928 11.9789 138.305 13.9366C134.682 15.8944 131.414 18.7527 128.5 22.5116C125.586 18.7527 122.318 15.8944 118.695 13.9366C115.072 11.9789 111.45 11 107.827 11C101.684 11 96.4272 13.1535 92.0563 17.4606C87.6854 21.7676 85.5 26.9361 85.5 32.9659C85.5 35.9417 85.9922 38.8588 86.9766 41.7171C87.9611 44.5754 89.8709 47.8057 92.706 51.4079C95.5412 55.0102 99.5577 59.3564 104.755 64.4465C109.953 69.5367 116.687 75.8798 124.956 83.4759Z" fill="white"/>
<path d="M152.232 59.2711L151.656 34.5034H156.785L156.209 59.2711H152.232ZM157.57 66.2556C157.57 67.9893 156.157 69.3268 154.43 69.3268C152.598 69.3268 151.185 67.9893 151.185 66.2556C151.185 64.5218 152.598 63.1844 154.43 63.1844C156.157 63.1844 157.57 64.5218 157.57 66.2556Z" fill="white"/>
</g>
<path d="M2.51547 160V134.8H5.25147L18.5535 155.446V134.8H21.0735V160H18.3555L5.03547 139.354V160H2.51547ZM33.1816 160.468C31.5256 160.468 30.0136 160.042 28.6456 159.19C27.2896 158.338 26.2036 157.198 25.3876 155.77C24.5836 154.33 24.1816 152.74 24.1816 151C24.1816 149.68 24.4156 148.45 24.8836 147.31C25.3516 146.158 25.9936 145.15 26.8096 144.286C27.6376 143.41 28.5976 142.726 29.6896 142.234C30.7816 141.742 31.9456 141.496 33.1816 141.496C34.8376 141.496 36.3436 141.922 37.6996 142.774C39.0676 143.626 40.1536 144.772 40.9576 146.212C41.7736 147.652 42.1816 149.248 42.1816 151C42.1816 152.308 41.9476 153.532 41.4796 154.672C41.0116 155.812 40.3636 156.82 39.5356 157.696C38.7196 158.56 37.7656 159.238 36.6736 159.73C35.5936 160.222 34.4296 160.468 33.1816 160.468ZM33.1816 157.948C34.4056 157.948 35.5036 157.63 36.4756 156.994C37.4596 156.346 38.2336 155.494 38.7976 154.438C39.3736 153.382 39.6616 152.236 39.6616 151C39.6616 149.74 39.3736 148.582 38.7976 147.526C38.2216 146.458 37.4416 145.606 36.4576 144.97C35.4856 144.334 34.3936 144.016 33.1816 144.016C31.9576 144.016 30.8536 144.34 29.8696 144.988C28.8976 145.624 28.1236 146.47 27.5476 147.526C26.9836 148.582 26.7016 149.74 26.7016 151C26.7016 152.296 26.9956 153.472 27.5836 154.528C28.1716 155.572 28.9576 156.406 29.9416 157.03C30.9256 157.642 32.0056 157.948 33.1816 157.948ZM54.0545 160V134.8H68.7965V137.32H56.5745V145.24H67.0685V147.76H56.5745V160H54.0545ZM84.3193 142H86.8393V160H84.3193L84.2293 156.652C83.6413 157.792 82.8193 158.716 81.7633 159.424C80.7073 160.12 79.4473 160.468 77.9833 160.468C76.6633 160.468 75.4273 160.222 74.2753 159.73C73.1233 159.226 72.1093 158.536 71.2333 157.66C70.3573 156.784 69.6733 155.77 69.1813 154.618C68.6893 153.466 68.4433 152.23 68.4433 150.91C68.4433 149.614 68.6833 148.396 69.1633 147.256C69.6553 146.116 70.3273 145.114 71.1793 144.25C72.0433 143.386 73.0393 142.714 74.1673 142.234C75.3073 141.742 76.5253 141.496 77.8213 141.496C79.3213 141.496 80.6293 141.856 81.7453 142.576C82.8613 143.284 83.7493 144.214 84.4093 145.366L84.3193 142ZM77.9293 158.02C79.2133 158.02 80.3173 157.708 81.2413 157.084C82.1653 156.448 82.8733 155.596 83.3653 154.528C83.8693 153.46 84.1213 152.284 84.1213 151C84.1213 149.68 83.8693 148.492 83.3653 147.436C82.8613 146.368 82.1473 145.522 81.2233 144.898C80.2993 144.274 79.2013 143.962 77.9293 143.962C76.6573 143.962 75.4933 144.28 74.4373 144.916C73.3933 145.54 72.5593 146.386 71.9353 147.454C71.3233 148.522 71.0173 149.704 71.0173 151C71.0173 152.308 71.3353 153.496 71.9713 154.564C72.6073 155.62 73.4473 156.46 74.4913 157.084C75.5473 157.708 76.6933 158.02 77.9293 158.02ZM98.7837 160H95.5797L89.0097 141.946H91.6917L97.1817 157.048L102.672 141.946H105.354L98.7837 160ZM115.553 160.468C113.897 160.468 112.385 160.042 111.017 159.19C109.661 158.338 108.575 157.198 107.759 155.77C106.955 154.33 106.553 152.74 106.553 151C106.553 149.68 106.787 148.45 107.255 147.31C107.723 146.158 108.365 145.15 109.181 144.286C110.009 143.41 110.969 142.726 112.061 142.234C113.153 141.742 114.317 141.496 115.553 141.496C117.209 141.496 118.715 141.922 120.071 142.774C121.439 143.626 122.525 144.772 123.329 146.212C124.145 147.652 124.553 149.248 124.553 151C124.553 152.308 124.319 153.532 123.851 154.672C123.383 155.812 122.735 156.82 121.907 157.696C121.091 158.56 120.137 159.238 119.045 159.73C117.965 160.222 116.801 160.468 115.553 160.468ZM115.553 157.948C116.777 157.948 117.875 157.63 118.847 156.994C119.831 156.346 120.605 155.494 121.169 154.438C121.745 153.382 122.033 152.236 122.033 151C122.033 149.74 121.745 148.582 121.169 147.526C120.593 146.458 119.813 145.606 118.829 144.97C117.857 144.334 116.765 144.016 115.553 144.016C114.329 144.016 113.225 144.34 112.241 144.988C111.269 145.624 110.495 146.47 109.919 147.526C109.355 148.582 109.073 149.74 109.073 151C109.073 152.296 109.367 153.472 109.955 154.528C110.543 155.572 111.329 156.406 112.313 157.03C113.297 157.642 114.377 157.948 115.553 157.948ZM126.706 153.106V142H129.226V152.602C129.226 153.586 129.466 154.48 129.946 155.284C130.426 156.088 131.068 156.73 131.872 157.21C132.688 157.69 133.582 157.93 134.554 157.93C135.538 157.93 136.426 157.69 137.218 157.21C138.022 156.73 138.664 156.088 139.144 155.284C139.624 154.48 139.864 153.586 139.864 152.602V142H142.384L142.402 160H139.882L139.864 157.48C139.228 158.392 138.4 159.118 137.38 159.658C136.372 160.198 135.268 160.468 134.068 160.468C132.712 160.468 131.476 160.138 130.36 159.478C129.244 158.818 128.356 157.93 127.696 156.814C127.036 155.698 126.706 154.462 126.706 153.106ZM145.988 160V142H148.508V144.484C149.144 143.572 149.972 142.846 150.992 142.306C152.012 141.766 153.122 141.496 154.322 141.496C155.018 141.496 155.69 141.586 156.338 141.766L155.312 144.268C154.808 144.112 154.316 144.034 153.836 144.034C152.864 144.034 151.97 144.274 151.154 144.754C150.35 145.234 149.708 145.876 149.228 146.68C148.748 147.484 148.508 148.378 148.508 149.362V160H145.988ZM158.609 142H161.129V160H158.609V142ZM159.887 138.85C159.479 138.85 159.131 138.718 158.843 138.454C158.567 138.178 158.429 137.836 158.429 137.428C158.429 137.02 158.567 136.684 158.843 136.42C159.131 136.144 159.479 136.006 159.887 136.006C160.283 136.006 160.619 136.144 160.895 136.42C161.183 136.684 161.327 137.02 161.327 137.428C161.327 137.836 161.189 138.178 160.913 138.454C160.637 138.718 160.295 138.85 159.887 138.85ZM174.663 144.52H170.361L170.343 160H167.823L167.841 144.52H164.583V142H167.841L167.823 136.348H170.343L170.361 142H174.663V144.52ZM185.303 160.468C183.647 160.468 182.135 160.042 180.767 159.19C179.411 158.338 178.325 157.198 177.509 155.77C176.705 154.33 176.303 152.74 176.303 151C176.303 149.68 176.537 148.45 177.005 147.31C177.473 146.158 178.115 145.15 178.931 144.286C179.759 143.41 180.719 142.726 181.811 142.234C182.903 141.742 184.067 141.496 185.303 141.496C186.635 141.496 187.859 141.76 188.975 142.288C190.103 142.816 191.069 143.554 191.873 144.502C192.689 145.45 193.301 146.56 193.709 147.832C194.129 149.104 194.303 150.478 194.231 151.954H178.967C179.111 153.094 179.471 154.114 180.047 155.014C180.635 155.914 181.379 156.628 182.279 157.156C183.191 157.672 184.199 157.936 185.303 157.948C186.503 157.948 187.583 157.636 188.543 157.012C189.515 156.388 190.295 155.53 190.883 154.438L193.439 155.032C192.719 156.628 191.633 157.936 190.181 158.956C188.729 159.964 187.103 160.468 185.303 160.468ZM178.895 149.92H191.693C191.609 148.804 191.267 147.784 190.667 146.86C190.079 145.924 189.317 145.18 188.381 144.628C187.445 144.064 186.419 143.782 185.303 143.782C184.187 143.782 183.167 144.058 182.243 144.61C181.319 145.15 180.563 145.888 179.975 146.824C179.387 147.748 179.027 148.78 178.895 149.92ZM206.14 160V134.8H208.66V157.48H220.234V160H206.14ZM224.211 142H226.731V160H224.211V142ZM225.489 138.85C225.081 138.85 224.733 138.718 224.445 138.454C224.169 138.178 224.031 137.836 224.031 137.428C224.031 137.02 224.169 136.684 224.445 136.42C224.733 136.144 225.081 136.006 225.489 136.006C225.885 136.006 226.221 136.144 226.497 136.42C226.785 136.684 226.929 137.02 226.929 137.428C226.929 137.836 226.791 138.178 226.515 138.454C226.239 138.718 225.897 138.85 225.489 138.85ZM236.488 160.342C235.504 160.318 234.544 160.138 233.608 159.802C232.672 159.466 231.856 159.01 231.16 158.434C230.464 157.858 229.966 157.204 229.666 156.472L231.844 155.536C232.036 156.004 232.39 156.436 232.906 156.832C233.434 157.216 234.034 157.528 234.706 157.768C235.378 157.996 236.044 158.11 236.704 158.11C237.436 158.11 238.12 157.99 238.756 157.75C239.392 157.51 239.908 157.168 240.304 156.724C240.712 156.268 240.916 155.734 240.916 155.122C240.916 154.462 240.7 153.946 240.268 153.574C239.836 153.19 239.29 152.89 238.63 152.674C237.97 152.446 237.292 152.23 236.596 152.026C235.324 151.678 234.202 151.294 233.23 150.874C232.258 150.454 231.496 149.92 230.944 149.272C230.404 148.612 230.134 147.766 230.134 146.734C230.134 145.642 230.44 144.7 231.052 143.908C231.676 143.104 232.486 142.486 233.482 142.054C234.49 141.61 235.564 141.388 236.704 141.388C238.168 141.388 239.5 141.706 240.7 142.342C241.912 142.978 242.788 143.824 243.328 144.88L241.294 146.086C241.078 145.594 240.736 145.168 240.268 144.808C239.8 144.448 239.266 144.166 238.666 143.962C238.078 143.758 237.478 143.65 236.866 143.638C236.098 143.626 235.384 143.74 234.724 143.98C234.064 144.208 233.53 144.55 233.122 145.006C232.726 145.462 232.528 146.02 232.528 146.68C232.528 147.34 232.726 147.844 233.122 148.192C233.518 148.528 234.052 148.804 234.724 149.02C235.408 149.224 236.176 149.464 237.028 149.74C238.12 150.088 239.146 150.484 240.106 150.928C241.066 151.372 241.84 151.924 242.428 152.584C243.016 153.244 243.304 154.078 243.292 155.086C243.292 156.166 242.968 157.108 242.32 157.912C241.672 158.716 240.832 159.334 239.8 159.766C238.768 160.186 237.664 160.378 236.488 160.342ZM255.592 144.52H251.29L251.272 160H248.752L248.77 144.52H245.512V142H248.77L248.752 136.348H251.272L251.29 142H255.592V144.52Z" fill="white"/>
</g>
</svg>
