<svg width="236" height="78" viewBox="0 0 236 78" fill="none" xmlns="http://www.w3.org/2000/svg">
<rect width="236" height="78" rx="10" fill="#2272A7"/>
<path d="M77.0559 50V29H84.0009C85.4509 29 86.8109 29.275 88.0809 29.825C89.3509 30.365 90.4659 31.12 91.4259 32.09C92.3859 33.05 93.1359 34.165 93.6759 35.435C94.2259 36.695 94.5009 38.05 94.5009 39.5C94.5009 40.95 94.2259 42.31 93.6759 43.58C93.1359 44.84 92.3859 45.955 91.4259 46.925C90.4659 47.885 89.3509 48.64 88.0809 49.19C86.8109 49.73 85.4509 50 84.0009 50H77.0559ZM79.5759 47.48H84.0009C85.1009 47.48 86.1309 47.275 87.0909 46.865C88.0609 46.445 88.9109 45.87 89.6409 45.14C90.3709 44.41 90.9409 43.565 91.3509 42.605C91.7709 41.635 91.9809 40.6 91.9809 39.5C91.9809 38.4 91.7709 37.37 91.3509 36.41C90.9409 35.44 90.3659 34.59 89.6259 33.86C88.8959 33.13 88.0509 32.56 87.0909 32.15C86.1309 31.73 85.1009 31.52 84.0009 31.52H79.5759V47.48ZM103.548 50.39C102.168 50.39 100.908 50.035 99.7684 49.325C98.6384 48.615 97.7334 47.665 97.0534 46.475C96.3834 45.275 96.0484 43.95 96.0484 42.5C96.0484 41.4 96.2434 40.375 96.6334 39.425C97.0234 38.465 97.5584 37.625 98.2384 36.905C98.9284 36.175 99.7284 35.605 100.638 35.195C101.548 34.785 102.518 34.58 103.548 34.58C104.678 34.58 105.713 34.81 106.653 35.27C107.603 35.72 108.413 36.35 109.083 37.16C109.763 37.97 110.268 38.91 110.598 39.98C110.938 41.05 111.063 42.195 110.973 43.415H98.7334C98.8534 44.265 99.1334 45.025 99.5734 45.695C100.013 46.355 100.573 46.88 101.253 47.27C101.943 47.66 102.708 47.86 103.548 47.87C104.448 47.87 105.263 47.64 105.993 47.18C106.723 46.71 107.313 46.07 107.763 45.26L110.328 45.86C109.728 47.19 108.823 48.28 107.613 49.13C106.403 49.97 105.048 50.39 103.548 50.39ZM98.6584 41.435H108.438C108.358 40.595 108.088 39.83 107.628 39.14C107.168 38.44 106.583 37.88 105.873 37.46C105.163 37.04 104.388 36.83 103.548 36.83C102.708 36.83 101.938 37.035 101.238 37.445C100.538 37.855 99.9584 38.41 99.4984 39.11C99.0484 39.8 98.7684 40.575 98.6584 41.435ZM113.355 50V27.5H115.875V50H113.355ZM125.931 50.39C124.551 50.39 123.291 50.035 122.151 49.325C121.021 48.615 120.116 47.665 119.436 46.475C118.766 45.275 118.431 43.95 118.431 42.5C118.431 41.4 118.626 40.375 119.016 39.425C119.406 38.465 119.941 37.625 120.621 36.905C121.311 36.175 122.111 35.605 123.021 35.195C123.931 34.785 124.901 34.58 125.931 34.58C127.061 34.58 128.096 34.81 129.036 35.27C129.986 35.72 130.796 36.35 131.466 37.16C132.146 37.97 132.651 38.91 132.981 39.98C133.321 41.05 133.446 42.195 133.356 43.415H121.116C121.236 44.265 121.516 45.025 121.956 45.695C122.396 46.355 122.956 46.88 123.636 47.27C124.326 47.66 125.091 47.86 125.931 47.87C126.831 47.87 127.646 47.64 128.376 47.18C129.106 46.71 129.696 46.07 130.146 45.26L132.711 45.86C132.111 47.19 131.206 48.28 129.996 49.13C128.786 49.97 127.431 50.39 125.931 50.39ZM121.041 41.435H130.821C130.741 40.595 130.471 39.83 130.011 39.14C129.551 38.44 128.966 37.88 128.256 37.46C127.546 37.04 126.771 36.83 125.931 36.83C125.091 36.83 124.321 37.035 123.621 37.445C122.921 37.855 122.341 38.41 121.881 39.11C121.431 39.8 121.151 40.575 121.041 41.435ZM143.478 37.52H140.073L140.058 50H137.538L137.553 37.52H134.973V35H137.553L137.538 30.29H140.058L140.073 35H143.478V37.52ZM152.386 50.39C151.006 50.39 149.746 50.035 148.606 49.325C147.476 48.615 146.571 47.665 145.891 46.475C145.221 45.275 144.886 43.95 144.886 42.5C144.886 41.4 145.081 40.375 145.471 39.425C145.861 38.465 146.396 37.625 147.076 36.905C147.766 36.175 148.566 35.605 149.476 35.195C150.386 34.785 151.356 34.58 152.386 34.58C153.516 34.58 154.551 34.81 155.491 35.27C156.441 35.72 157.251 36.35 157.921 37.16C158.601 37.97 159.106 38.91 159.436 39.98C159.776 41.05 159.901 42.195 159.811 43.415H147.571C147.691 44.265 147.971 45.025 148.411 45.695C148.851 46.355 149.411 46.88 150.091 47.27C150.781 47.66 151.546 47.86 152.386 47.87C153.286 47.87 154.101 47.64 154.831 47.18C155.561 46.71 156.151 46.07 156.601 45.26L159.166 45.86C158.566 47.19 157.661 48.28 156.451 49.13C155.241 49.97 153.886 50.39 152.386 50.39ZM147.496 41.435H157.276C157.196 40.595 156.926 39.83 156.466 39.14C156.006 38.44 155.421 37.88 154.711 37.46C154.001 37.04 153.226 36.83 152.386 36.83C151.546 36.83 150.776 37.035 150.076 37.445C149.376 37.855 148.796 38.41 148.336 39.11C147.886 39.8 147.606 40.575 147.496 41.435Z" fill="white"/>
</svg>
