<svg width="49" height="48" viewBox="0 0 49 48" fill="none" xmlns="http://www.w3.org/2000/svg">
<path d="M5.33398 43V37.0662L36.9207 5.29968C37.0162 5.14681 37.12 5.07862 37.2321 5.09512C37.3442 5.11162 37.4337 5.11987 37.5007 5.11987C37.5678 5.11987 37.6177 5.08991 37.6506 5.02997C37.6835 4.97003 37.7998 5 37.9996 5.11987L43.0942 10.0946C43.2141 10.2944 43.2641 10.4225 43.2441 10.4788C43.2241 10.5352 43.2141 10.6315 43.2141 10.7677C43.2141 10.8384 43.2059 10.9199 43.1894 11.012C43.1729 11.1041 43.1212 11.1979 43.0343 11.2934L11.2677 43H5.33398ZM36.3214 14.1703L39.7378 10.8139L37.5201 8.65615L34.1636 12.0126L36.3214 14.1703Z" fill="white"/>
</svg>
