<svg width="578" height="325" viewBox="0 0 578 325" fill="none" xmlns="http://www.w3.org/2000/svg">
<g filter="url(#filter0_b_4555_58364)">
<rect width="578" height="325" rx="10" fill="#2272A7" fill-opacity="0.6"/>
</g>
<path d="M80.9494 117V96H87.8944C89.3444 96 90.7044 96.275 91.9744 96.825C93.2444 97.365 94.3594 98.12 95.3194 99.09C96.2794 100.05 97.0294 101.165 97.5694 102.435C98.1194 103.695 98.3944 105.05 98.3944 106.5C98.3944 107.95 98.1194 109.31 97.5694 110.58C97.0294 111.84 96.2794 112.955 95.3194 113.925C94.3594 114.885 93.2444 115.64 91.9744 116.19C90.7044 116.73 89.3444 117 87.8944 117H80.9494ZM83.4694 114.48H87.8944C88.9944 114.48 90.0244 114.275 90.9844 113.865C91.9544 113.445 92.8044 112.87 93.5344 112.14C94.2644 111.41 94.8344 110.565 95.2444 109.605C95.6644 108.635 95.8744 107.6 95.8744 106.5C95.8744 105.4 95.6644 104.37 95.2444 103.41C94.8344 102.44 94.2594 101.59 93.5194 100.86C92.7894 100.13 91.9444 99.56 90.9844 99.15C90.0244 98.73 88.9944 98.52 87.8944 98.52H83.4694V114.48ZM107.442 117.39C106.062 117.39 104.802 117.035 103.662 116.325C102.532 115.615 101.627 114.665 100.947 113.475C100.277 112.275 99.942 110.95 99.942 109.5C99.942 108.4 100.137 107.375 100.527 106.425C100.917 105.465 101.452 104.625 102.132 103.905C102.822 103.175 103.622 102.605 104.532 102.195C105.442 101.785 106.412 101.58 107.442 101.58C108.822 101.58 110.077 101.935 111.207 102.645C112.347 103.355 113.252 104.31 113.922 105.51C114.602 106.71 114.942 108.04 114.942 109.5C114.942 110.59 114.747 111.61 114.357 112.56C113.967 113.51 113.427 114.35 112.737 115.08C112.057 115.8 111.262 116.365 110.352 116.775C109.452 117.185 108.482 117.39 107.442 117.39ZM107.442 114.87C108.382 114.87 109.227 114.625 109.977 114.135C110.737 113.635 111.332 112.98 111.762 112.17C112.202 111.35 112.422 110.46 112.422 109.5C112.422 108.52 112.197 107.62 111.747 106.8C111.307 105.98 110.712 105.325 109.962 104.835C109.212 104.345 108.372 104.1 107.442 104.1C106.502 104.1 105.657 104.35 104.907 104.85C104.157 105.34 103.562 105.995 103.122 106.815C102.682 107.635 102.462 108.53 102.462 109.5C102.462 110.5 102.687 111.41 103.137 112.23C103.587 113.04 104.192 113.685 104.952 114.165C105.712 114.635 106.542 114.87 107.442 114.87ZM135.111 102H137.781L129.576 124.5H126.906L129.621 117L124.236 102H126.996L130.881 113.535L135.111 102ZM146.319 117.39C144.939 117.39 143.679 117.035 142.539 116.325C141.409 115.615 140.504 114.665 139.824 113.475C139.154 112.275 138.819 110.95 138.819 109.5C138.819 108.4 139.014 107.375 139.404 106.425C139.794 105.465 140.329 104.625 141.009 103.905C141.699 103.175 142.499 102.605 143.409 102.195C144.319 101.785 145.289 101.58 146.319 101.58C147.699 101.58 148.954 101.935 150.084 102.645C151.224 103.355 152.129 104.31 152.799 105.51C153.479 106.71 153.819 108.04 153.819 109.5C153.819 110.59 153.624 111.61 153.234 112.56C152.844 113.51 152.304 114.35 151.614 115.08C150.934 115.8 150.139 116.365 149.229 116.775C148.329 117.185 147.359 117.39 146.319 117.39ZM146.319 114.87C147.259 114.87 148.104 114.625 148.854 114.135C149.614 113.635 150.209 112.98 150.639 112.17C151.079 111.35 151.299 110.46 151.299 109.5C151.299 108.52 151.074 107.62 150.624 106.8C150.184 105.98 149.589 105.325 148.839 104.835C148.089 104.345 147.249 104.1 146.319 104.1C145.379 104.1 144.534 104.35 143.784 104.85C143.034 105.34 142.439 105.995 141.999 106.815C141.559 107.635 141.339 108.53 141.339 109.5C141.339 110.5 141.564 111.41 142.014 112.23C142.464 113.04 143.069 113.685 143.829 114.165C144.589 114.635 145.419 114.87 146.319 114.87ZM155.496 111.3V102H158.016V110.745C158.016 111.505 158.201 112.195 158.571 112.815C158.941 113.435 159.436 113.93 160.056 114.3C160.686 114.66 161.376 114.84 162.126 114.84C162.886 114.84 163.571 114.66 164.181 114.3C164.801 113.93 165.296 113.435 165.666 112.815C166.036 112.195 166.221 111.505 166.221 110.745V102H168.741L168.756 117H166.236L166.221 115.095C165.691 115.795 165.021 116.355 164.211 116.775C163.401 117.185 162.526 117.39 161.586 117.39C160.466 117.39 159.441 117.12 158.511 116.58C157.591 116.03 156.856 115.295 156.306 114.375C155.766 113.455 155.496 112.43 155.496 111.3ZM185.652 117H183.102L178.077 102H180.537L184.407 113.445L188.232 102H190.827L194.667 113.445L198.492 102H200.982L195.957 117H193.392L189.507 105.45L185.652 117ZM214.884 102H217.404V117H214.884L214.779 114.465C214.309 115.335 213.659 116.04 212.829 116.58C212.009 117.12 211.029 117.39 209.889 117.39C208.789 117.39 207.759 117.185 206.799 116.775C205.839 116.355 204.989 115.78 204.249 115.05C203.519 114.31 202.949 113.46 202.539 112.5C202.129 111.54 201.924 110.505 201.924 109.395C201.924 108.325 202.124 107.315 202.524 106.365C202.924 105.415 203.479 104.585 204.189 103.875C204.909 103.155 205.739 102.595 206.679 102.195C207.619 101.785 208.629 101.58 209.709 101.58C210.889 101.58 211.924 101.86 212.814 102.42C213.704 102.97 214.424 103.685 214.974 104.565L214.884 102ZM209.844 114.945C210.834 114.945 211.689 114.705 212.409 114.225C213.139 113.735 213.699 113.075 214.089 112.245C214.489 111.415 214.689 110.5 214.689 109.5C214.689 108.48 214.489 107.56 214.089 106.74C213.689 105.91 213.124 105.255 212.394 104.775C211.674 104.285 210.824 104.04 209.844 104.04C208.854 104.04 207.954 104.285 207.144 104.775C206.334 105.265 205.689 105.925 205.209 106.755C204.739 107.575 204.504 108.49 204.504 109.5C204.504 110.51 204.749 111.43 205.239 112.26C205.729 113.08 206.379 113.735 207.189 114.225C207.999 114.705 208.884 114.945 209.844 114.945ZM233.663 107.67V117H231.143V108.225C231.143 107.465 230.958 106.775 230.588 106.155C230.218 105.535 229.723 105.045 229.103 104.685C228.483 104.315 227.793 104.13 227.033 104.13C226.283 104.13 225.593 104.315 224.963 104.685C224.343 105.045 223.848 105.535 223.478 106.155C223.108 106.775 222.923 107.465 222.923 108.225V117H220.403V102H222.923V103.875C223.453 103.175 224.123 102.62 224.933 102.21C225.743 101.79 226.623 101.58 227.573 101.58C228.693 101.58 229.713 101.855 230.633 102.405C231.563 102.945 232.298 103.675 232.838 104.595C233.388 105.515 233.663 106.54 233.663 107.67ZM244.432 104.52H241.027L241.012 117H238.492L238.507 104.52H235.927V102H238.507L238.492 97.29H241.012L241.027 102H244.432V104.52ZM262.098 104.52H258.693L258.678 117H256.158L256.173 104.52H253.593V102H256.173L256.158 97.29H258.678L258.693 102H262.098V104.52ZM271.006 117.39C269.626 117.39 268.366 117.035 267.226 116.325C266.096 115.615 265.191 114.665 264.511 113.475C263.841 112.275 263.506 110.95 263.506 109.5C263.506 108.4 263.701 107.375 264.091 106.425C264.481 105.465 265.016 104.625 265.696 103.905C266.386 103.175 267.186 102.605 268.096 102.195C269.006 101.785 269.976 101.58 271.006 101.58C272.386 101.58 273.641 101.935 274.771 102.645C275.911 103.355 276.816 104.31 277.486 105.51C278.166 106.71 278.506 108.04 278.506 109.5C278.506 110.59 278.311 111.61 277.921 112.56C277.531 113.51 276.991 114.35 276.301 115.08C275.621 115.8 274.826 116.365 273.916 116.775C273.016 117.185 272.046 117.39 271.006 117.39ZM271.006 114.87C271.946 114.87 272.791 114.625 273.541 114.135C274.301 113.635 274.896 112.98 275.326 112.17C275.766 111.35 275.986 110.46 275.986 109.5C275.986 108.52 275.761 107.62 275.311 106.8C274.871 105.98 274.276 105.325 273.526 104.835C272.776 104.345 271.936 104.1 271.006 104.1C270.066 104.1 269.221 104.35 268.471 104.85C267.721 105.34 267.126 105.995 266.686 106.815C266.246 107.635 266.026 108.53 266.026 109.5C266.026 110.5 266.251 111.41 266.701 112.23C267.151 113.04 267.756 113.685 268.516 114.165C269.276 114.635 270.106 114.87 271.006 114.87ZM300.476 94.5H302.996V117H300.476V114.45C299.966 115.33 299.281 116.04 298.421 116.58C297.561 117.12 296.551 117.39 295.391 117.39C294.301 117.39 293.281 117.185 292.331 116.775C291.381 116.365 290.541 115.8 289.811 115.08C289.091 114.35 288.526 113.51 288.116 112.56C287.706 111.61 287.501 110.59 287.501 109.5C287.501 108.41 287.706 107.39 288.116 106.44C288.526 105.48 289.091 104.64 289.811 103.92C290.541 103.19 291.381 102.62 292.331 102.21C293.281 101.8 294.301 101.595 295.391 101.595C296.551 101.595 297.561 101.865 298.421 102.405C299.281 102.945 299.966 103.655 300.476 104.535V94.5ZM295.421 114.945C296.411 114.945 297.266 114.705 297.986 114.225C298.716 113.735 299.276 113.075 299.666 112.245C300.066 111.415 300.266 110.5 300.266 109.5C300.266 108.48 300.066 107.56 299.666 106.74C299.266 105.91 298.701 105.255 297.971 104.775C297.251 104.285 296.401 104.04 295.421 104.04C294.431 104.04 293.531 104.285 292.721 104.775C291.921 105.265 291.281 105.925 290.801 106.755C290.321 107.575 290.081 108.49 290.081 109.5C290.081 110.51 290.326 111.43 290.816 112.26C291.306 113.08 291.956 113.735 292.766 114.225C293.576 114.705 294.461 114.945 295.421 114.945ZM313.047 117.39C311.667 117.39 310.407 117.035 309.267 116.325C308.137 115.615 307.232 114.665 306.552 113.475C305.882 112.275 305.547 110.95 305.547 109.5C305.547 108.4 305.742 107.375 306.132 106.425C306.522 105.465 307.057 104.625 307.737 103.905C308.427 103.175 309.227 102.605 310.137 102.195C311.047 101.785 312.017 101.58 313.047 101.58C314.177 101.58 315.212 101.81 316.152 102.27C317.102 102.72 317.912 103.35 318.582 104.16C319.262 104.97 319.767 105.91 320.097 106.98C320.437 108.05 320.562 109.195 320.472 110.415H308.232C308.352 111.265 308.632 112.025 309.072 112.695C309.512 113.355 310.072 113.88 310.752 114.27C311.442 114.66 312.207 114.86 313.047 114.87C313.947 114.87 314.762 114.64 315.492 114.18C316.222 113.71 316.812 113.07 317.262 112.26L319.827 112.86C319.227 114.19 318.322 115.28 317.112 116.13C315.902 116.97 314.547 117.39 313.047 117.39ZM308.157 108.435H317.937C317.857 107.595 317.587 106.83 317.127 106.14C316.667 105.44 316.082 104.88 315.372 104.46C314.662 104.04 313.887 103.83 313.047 103.83C312.207 103.83 311.437 104.035 310.737 104.445C310.037 104.855 309.457 105.41 308.997 106.11C308.547 106.8 308.267 107.575 308.157 108.435ZM322.854 117V94.5H325.374V117H322.854ZM335.43 117.39C334.05 117.39 332.79 117.035 331.65 116.325C330.52 115.615 329.615 114.665 328.935 113.475C328.265 112.275 327.93 110.95 327.93 109.5C327.93 108.4 328.125 107.375 328.515 106.425C328.905 105.465 329.44 104.625 330.12 103.905C330.81 103.175 331.61 102.605 332.52 102.195C333.43 101.785 334.4 101.58 335.43 101.58C336.56 101.58 337.595 101.81 338.535 102.27C339.485 102.72 340.295 103.35 340.965 104.16C341.645 104.97 342.15 105.91 342.48 106.98C342.82 108.05 342.945 109.195 342.855 110.415H330.615C330.735 111.265 331.015 112.025 331.455 112.695C331.895 113.355 332.455 113.88 333.135 114.27C333.825 114.66 334.59 114.86 335.43 114.87C336.33 114.87 337.145 114.64 337.875 114.18C338.605 113.71 339.195 113.07 339.645 112.26L342.21 112.86C341.61 114.19 340.705 115.28 339.495 116.13C338.285 116.97 336.93 117.39 335.43 117.39ZM330.54 108.435H340.32C340.24 107.595 339.97 106.83 339.51 106.14C339.05 105.44 338.465 104.88 337.755 104.46C337.045 104.04 336.27 103.83 335.43 103.83C334.59 103.83 333.82 104.035 333.12 104.445C332.42 104.855 331.84 105.41 331.38 106.11C330.93 106.8 330.65 107.575 330.54 108.435ZM352.977 104.52H349.572L349.557 117H347.037L347.052 104.52H344.472V102H347.052L347.037 97.29H349.557L349.572 102H352.977V104.52ZM361.885 117.39C360.505 117.39 359.245 117.035 358.105 116.325C356.975 115.615 356.07 114.665 355.39 113.475C354.72 112.275 354.385 110.95 354.385 109.5C354.385 108.4 354.58 107.375 354.97 106.425C355.36 105.465 355.895 104.625 356.575 103.905C357.265 103.175 358.065 102.605 358.975 102.195C359.885 101.785 360.855 101.58 361.885 101.58C363.015 101.58 364.05 101.81 364.99 102.27C365.94 102.72 366.75 103.35 367.42 104.16C368.1 104.97 368.605 105.91 368.935 106.98C369.275 108.05 369.4 109.195 369.31 110.415H357.07C357.19 111.265 357.47 112.025 357.91 112.695C358.35 113.355 358.91 113.88 359.59 114.27C360.28 114.66 361.045 114.86 361.885 114.87C362.785 114.87 363.6 114.64 364.33 114.18C365.06 113.71 365.65 113.07 366.1 112.26L368.665 112.86C368.065 114.19 367.16 115.28 365.95 116.13C364.74 116.97 363.385 117.39 361.885 117.39ZM356.995 108.435H366.775C366.695 107.595 366.425 106.83 365.965 106.14C365.505 105.44 364.92 104.88 364.21 104.46C363.5 104.04 362.725 103.83 361.885 103.83C361.045 103.83 360.275 104.035 359.575 104.445C358.875 104.855 358.295 105.41 357.835 106.11C357.385 106.8 357.105 107.575 356.995 108.435ZM379.25 102H381.77V117H379.25V102ZM380.54 99.555C380.14 99.555 379.805 99.425 379.535 99.165C379.265 98.905 379.13 98.58 379.13 98.19C379.13 97.8 379.265 97.475 379.535 97.215C379.805 96.955 380.135 96.825 380.525 96.825C380.915 96.825 381.245 96.955 381.515 97.215C381.785 97.475 381.92 97.8 381.92 98.19C381.92 98.58 381.785 98.905 381.515 99.165C381.255 99.425 380.93 99.555 380.54 99.555ZM393.143 104.52H389.738L389.723 117H387.203L387.218 104.52H384.638V102H387.218L387.203 97.29H389.723L389.738 102H393.143V104.52ZM402.051 117.39C400.671 117.39 399.411 117.035 398.271 116.325C397.141 115.615 396.236 114.665 395.556 113.475C394.886 112.275 394.551 110.95 394.551 109.5C394.551 108.4 394.746 107.375 395.136 106.425C395.526 105.465 396.061 104.625 396.741 103.905C397.431 103.175 398.231 102.605 399.141 102.195C400.051 101.785 401.021 101.58 402.051 101.58C403.181 101.58 404.216 101.81 405.156 102.27C406.106 102.72 406.916 103.35 407.586 104.16C408.266 104.97 408.771 105.91 409.101 106.98C409.441 108.05 409.566 109.195 409.476 110.415H397.236C397.356 111.265 397.636 112.025 398.076 112.695C398.516 113.355 399.076 113.88 399.756 114.27C400.446 114.66 401.211 114.86 402.051 114.87C402.951 114.87 403.766 114.64 404.496 114.18C405.226 113.71 405.816 113.07 406.266 112.26L408.831 112.86C408.231 114.19 407.326 115.28 406.116 116.13C404.906 116.97 403.551 117.39 402.051 117.39ZM397.161 108.435H406.941C406.861 107.595 406.591 106.83 406.131 106.14C405.671 105.44 405.086 104.88 404.376 104.46C403.666 104.04 402.891 103.83 402.051 103.83C401.211 103.83 400.441 104.035 399.741 104.445C399.041 104.855 398.461 105.41 398.001 106.11C397.551 106.8 397.271 107.575 397.161 108.435ZM412.004 117V102H414.524V103.875C415.054 103.175 415.719 102.62 416.519 102.21C417.329 101.79 418.209 101.58 419.159 101.58C420.269 101.58 421.284 101.85 422.204 102.39C423.124 102.93 423.849 103.645 424.379 104.535C424.909 103.645 425.629 102.93 426.539 102.39C427.459 101.85 428.469 101.58 429.569 101.58C430.699 101.58 431.724 101.855 432.644 102.405C433.564 102.945 434.294 103.675 434.834 104.595C435.384 105.515 435.659 106.54 435.659 107.67V117H433.139V108.27C433.139 107.53 432.959 106.845 432.599 106.215C432.239 105.585 431.754 105.08 431.144 104.7C430.534 104.32 429.859 104.13 429.119 104.13C428.379 104.13 427.704 104.31 427.094 104.67C426.484 105.02 425.999 105.51 425.639 106.14C425.279 106.76 425.099 107.47 425.099 108.27V117H422.579V108.27C422.579 107.47 422.399 106.76 422.039 106.14C421.679 105.51 421.189 105.02 420.569 104.67C419.959 104.31 419.284 104.13 418.544 104.13C417.814 104.13 417.139 104.32 416.519 104.7C415.909 105.08 415.424 105.585 415.064 106.215C414.704 106.845 414.524 107.53 414.524 108.27V117H412.004ZM449.276 98.295V102H453.671V104.52H449.276V117H446.756V104.52H444.821V102H446.756V98.295C446.756 97.525 446.941 96.83 447.311 96.21C447.691 95.58 448.196 95.08 448.826 94.71C449.466 94.33 450.166 94.14 450.926 94.14C451.486 94.14 452.031 94.255 452.561 94.485C453.091 94.705 453.561 95.035 453.971 95.475L452.171 97.26C452.031 97.07 451.846 96.925 451.616 96.825C451.396 96.715 451.166 96.66 450.926 96.66C450.476 96.66 450.086 96.82 449.756 97.14C449.436 97.46 449.276 97.845 449.276 98.295ZM456.477 117V102H458.997V103.875C459.527 103.175 460.197 102.62 461.007 102.21C461.817 101.79 462.697 101.58 463.647 101.58C464.227 101.58 464.787 101.655 465.327 101.805L464.307 104.325C463.897 104.195 463.497 104.13 463.107 104.13C462.357 104.13 461.667 104.315 461.037 104.685C460.417 105.045 459.922 105.535 459.552 106.155C459.182 106.775 458.997 107.465 458.997 108.225V117H456.477ZM473.008 117.39C471.628 117.39 470.368 117.035 469.228 116.325C468.098 115.615 467.193 114.665 466.513 113.475C465.843 112.275 465.508 110.95 465.508 109.5C465.508 108.4 465.703 107.375 466.093 106.425C466.483 105.465 467.018 104.625 467.698 103.905C468.388 103.175 469.188 102.605 470.098 102.195C471.008 101.785 471.978 101.58 473.008 101.58C474.388 101.58 475.643 101.935 476.773 102.645C477.913 103.355 478.818 104.31 479.488 105.51C480.168 106.71 480.508 108.04 480.508 109.5C480.508 110.59 480.313 111.61 479.923 112.56C479.533 113.51 478.993 114.35 478.303 115.08C477.623 115.8 476.828 116.365 475.918 116.775C475.018 117.185 474.048 117.39 473.008 117.39ZM473.008 114.87C473.948 114.87 474.793 114.625 475.543 114.135C476.303 113.635 476.898 112.98 477.328 112.17C477.768 111.35 477.988 110.46 477.988 109.5C477.988 108.52 477.763 107.62 477.313 106.8C476.873 105.98 476.278 105.325 475.528 104.835C474.778 104.345 473.938 104.1 473.008 104.1C472.068 104.1 471.223 104.35 470.473 104.85C469.723 105.34 469.128 105.995 468.688 106.815C468.248 107.635 468.028 108.53 468.028 109.5C468.028 110.5 468.253 111.41 468.703 112.23C469.153 113.04 469.758 113.685 470.518 114.165C471.278 114.635 472.108 114.87 473.008 114.87ZM482.99 117V102H485.51V103.875C486.04 103.175 486.705 102.62 487.505 102.21C488.315 101.79 489.195 101.58 490.145 101.58C491.255 101.58 492.27 101.85 493.19 102.39C494.11 102.93 494.835 103.645 495.365 104.535C495.895 103.645 496.615 102.93 497.525 102.39C498.445 101.85 499.455 101.58 500.555 101.58C501.685 101.58 502.71 101.855 503.63 102.405C504.55 102.945 505.28 103.675 505.82 104.595C506.37 105.515 506.645 106.54 506.645 107.67V117H504.125V108.27C504.125 107.53 503.945 106.845 503.585 106.215C503.225 105.585 502.74 105.08 502.13 104.7C501.52 104.32 500.845 104.13 500.105 104.13C499.365 104.13 498.69 104.31 498.08 104.67C497.47 105.02 496.985 105.51 496.625 106.14C496.265 106.76 496.085 107.47 496.085 108.27V117H493.565V108.27C493.565 107.47 493.385 106.76 493.025 106.14C492.665 105.51 492.175 105.02 491.555 104.67C490.945 104.31 490.27 104.13 489.53 104.13C488.8 104.13 488.125 104.32 487.505 104.7C486.895 105.08 486.41 105.585 486.05 106.215C485.69 106.845 485.51 107.53 485.51 108.27V117H482.99ZM190.306 140.52H186.901L186.886 153H184.366L184.381 140.52H181.801V138H184.381L184.366 133.29H186.886L186.901 138H190.306V140.52ZM206.255 143.67V153H203.735V144.225C203.735 143.465 203.55 142.775 203.18 142.155C202.81 141.535 202.315 141.045 201.695 140.685C201.075 140.315 200.385 140.13 199.625 140.13C198.875 140.13 198.185 140.315 197.555 140.685C196.935 141.045 196.44 141.535 196.07 142.155C195.7 142.775 195.515 143.465 195.515 144.225V153H192.995V130.5H195.515V139.875C196.045 139.175 196.715 138.62 197.525 138.21C198.335 137.79 199.215 137.58 200.165 137.58C201.285 137.58 202.305 137.855 203.225 138.405C204.155 138.945 204.89 139.675 205.43 140.595C205.98 141.515 206.255 142.54 206.255 143.67ZM215.562 153.39C214.182 153.39 212.922 153.035 211.782 152.325C210.652 151.615 209.747 150.665 209.067 149.475C208.397 148.275 208.062 146.95 208.062 145.5C208.062 144.4 208.257 143.375 208.647 142.425C209.037 141.465 209.572 140.625 210.252 139.905C210.942 139.175 211.742 138.605 212.652 138.195C213.562 137.785 214.532 137.58 215.562 137.58C216.692 137.58 217.727 137.81 218.667 138.27C219.617 138.72 220.427 139.35 221.097 140.16C221.777 140.97 222.282 141.91 222.612 142.98C222.952 144.05 223.077 145.195 222.987 146.415H210.747C210.867 147.265 211.147 148.025 211.587 148.695C212.027 149.355 212.587 149.88 213.267 150.27C213.957 150.66 214.722 150.86 215.562 150.87C216.462 150.87 217.277 150.64 218.007 150.18C218.737 149.71 219.327 149.07 219.777 148.26L222.342 148.86C221.742 150.19 220.837 151.28 219.627 152.13C218.417 152.97 217.062 153.39 215.562 153.39ZM210.672 144.435H220.452C220.372 143.595 220.102 142.83 219.642 142.14C219.182 141.44 218.597 140.88 217.887 140.46C217.177 140.04 216.402 139.83 215.562 139.83C214.722 139.83 213.952 140.035 213.252 140.445C212.552 140.855 211.972 141.41 211.512 142.11C211.062 142.8 210.782 143.575 210.672 144.435ZM236.332 134.295V138H240.727V140.52H236.332V153H233.812V140.52H231.877V138H233.812V134.295C233.812 133.525 233.997 132.83 234.367 132.21C234.747 131.58 235.252 131.08 235.882 130.71C236.522 130.33 237.222 130.14 237.982 130.14C238.542 130.14 239.087 130.255 239.617 130.485C240.147 130.705 240.617 131.035 241.027 131.475L239.227 133.26C239.087 133.07 238.902 132.925 238.672 132.825C238.452 132.715 238.222 132.66 237.982 132.66C237.532 132.66 237.142 132.82 236.812 133.14C236.492 133.46 236.332 133.845 236.332 134.295ZM254.86 138H257.38V153H254.86L254.755 150.465C254.285 151.335 253.635 152.04 252.805 152.58C251.985 153.12 251.005 153.39 249.865 153.39C248.765 153.39 247.735 153.185 246.775 152.775C245.815 152.355 244.965 151.78 244.225 151.05C243.495 150.31 242.925 149.46 242.515 148.5C242.105 147.54 241.9 146.505 241.9 145.395C241.9 144.325 242.1 143.315 242.5 142.365C242.9 141.415 243.455 140.585 244.165 139.875C244.885 139.155 245.715 138.595 246.655 138.195C247.595 137.785 248.605 137.58 249.685 137.58C250.865 137.58 251.9 137.86 252.79 138.42C253.68 138.97 254.4 139.685 254.95 140.565L254.86 138ZM249.82 150.945C250.81 150.945 251.665 150.705 252.385 150.225C253.115 149.735 253.675 149.075 254.065 148.245C254.465 147.415 254.665 146.5 254.665 145.5C254.665 144.48 254.465 143.56 254.065 142.74C253.665 141.91 253.1 141.255 252.37 140.775C251.65 140.285 250.8 140.04 249.82 140.04C248.83 140.04 247.93 140.285 247.12 140.775C246.31 141.265 245.665 141.925 245.185 142.755C244.715 143.575 244.48 144.49 244.48 145.5C244.48 146.51 244.725 147.43 245.215 148.26C245.705 149.08 246.355 149.735 247.165 150.225C247.975 150.705 248.86 150.945 249.82 150.945ZM267.768 153H264.543L259.068 137.97H261.753L266.148 150.075L270.543 137.97H273.228L267.768 153ZM281.685 153.39C280.305 153.39 279.045 153.035 277.905 152.325C276.775 151.615 275.87 150.665 275.19 149.475C274.52 148.275 274.185 146.95 274.185 145.5C274.185 144.4 274.38 143.375 274.77 142.425C275.16 141.465 275.695 140.625 276.375 139.905C277.065 139.175 277.865 138.605 278.775 138.195C279.685 137.785 280.655 137.58 281.685 137.58C283.065 137.58 284.32 137.935 285.45 138.645C286.59 139.355 287.495 140.31 288.165 141.51C288.845 142.71 289.185 144.04 289.185 145.5C289.185 146.59 288.99 147.61 288.6 148.56C288.21 149.51 287.67 150.35 286.98 151.08C286.3 151.8 285.505 152.365 284.595 152.775C283.695 153.185 282.725 153.39 281.685 153.39ZM281.685 150.87C282.625 150.87 283.47 150.625 284.22 150.135C284.98 149.635 285.575 148.98 286.005 148.17C286.445 147.35 286.665 146.46 286.665 145.5C286.665 144.52 286.44 143.62 285.99 142.8C285.55 141.98 284.955 141.325 284.205 140.835C283.455 140.345 282.615 140.1 281.685 140.1C280.745 140.1 279.9 140.35 279.15 140.85C278.4 141.34 277.805 141.995 277.365 142.815C276.925 143.635 276.705 144.53 276.705 145.5C276.705 146.5 276.93 147.41 277.38 148.23C277.83 149.04 278.435 149.685 279.195 150.165C279.955 150.635 280.785 150.87 281.685 150.87ZM290.862 147.3V138H293.382V146.745C293.382 147.505 293.567 148.195 293.937 148.815C294.307 149.435 294.802 149.93 295.422 150.3C296.052 150.66 296.742 150.84 297.492 150.84C298.252 150.84 298.937 150.66 299.547 150.3C300.167 149.93 300.662 149.435 301.032 148.815C301.402 148.195 301.587 147.505 301.587 146.745V138H304.107L304.122 153H301.602L301.587 151.095C301.057 151.795 300.387 152.355 299.577 152.775C298.767 153.185 297.892 153.39 296.952 153.39C295.832 153.39 294.807 153.12 293.877 152.58C292.957 152.03 292.222 151.295 291.672 150.375C291.132 149.455 290.862 148.43 290.862 147.3ZM307.136 153V138H309.656V139.875C310.186 139.175 310.856 138.62 311.666 138.21C312.476 137.79 313.356 137.58 314.306 137.58C314.886 137.58 315.446 137.655 315.986 137.805L314.966 140.325C314.556 140.195 314.156 140.13 313.766 140.13C313.016 140.13 312.326 140.315 311.696 140.685C311.076 141.045 310.581 141.535 310.211 142.155C309.841 142.775 309.656 143.465 309.656 144.225V153H307.136ZM317.829 138H320.349V153H317.829V138ZM319.119 135.555C318.719 135.555 318.384 135.425 318.114 135.165C317.844 134.905 317.709 134.58 317.709 134.19C317.709 133.8 317.844 133.475 318.114 133.215C318.384 132.955 318.714 132.825 319.104 132.825C319.494 132.825 319.824 132.955 320.094 133.215C320.364 133.475 320.499 133.8 320.499 134.19C320.499 134.58 320.364 134.905 320.094 135.165C319.834 135.425 319.509 135.555 319.119 135.555ZM331.722 140.52H328.317L328.302 153H325.782L325.797 140.52H323.217V138H325.797L325.782 133.29H328.302L328.317 138H331.722V140.52ZM340.63 153.39C339.25 153.39 337.99 153.035 336.85 152.325C335.72 151.615 334.815 150.665 334.135 149.475C333.465 148.275 333.13 146.95 333.13 145.5C333.13 144.4 333.325 143.375 333.715 142.425C334.105 141.465 334.64 140.625 335.32 139.905C336.01 139.175 336.81 138.605 337.72 138.195C338.63 137.785 339.6 137.58 340.63 137.58C341.76 137.58 342.795 137.81 343.735 138.27C344.685 138.72 345.495 139.35 346.165 140.16C346.845 140.97 347.35 141.91 347.68 142.98C348.02 144.05 348.145 145.195 348.055 146.415H335.815C335.935 147.265 336.215 148.025 336.655 148.695C337.095 149.355 337.655 149.88 338.335 150.27C339.025 150.66 339.79 150.86 340.63 150.87C341.53 150.87 342.345 150.64 343.075 150.18C343.805 149.71 344.395 149.07 344.845 148.26L347.41 148.86C346.81 150.19 345.905 151.28 344.695 152.13C343.485 152.97 342.13 153.39 340.63 153.39ZM335.74 144.435H345.52C345.44 143.595 345.17 142.83 344.71 142.14C344.25 141.44 343.665 140.88 342.955 140.46C342.245 140.04 341.47 139.83 340.63 139.83C339.79 139.83 339.02 140.035 338.32 140.445C337.62 140.855 337.04 141.41 336.58 142.11C336.13 142.8 335.85 143.575 335.74 144.435ZM357.995 153V132H360.515V150.48H369.92V153H357.995ZM373.23 138H375.75V153H373.23V138ZM374.52 135.555C374.12 135.555 373.785 135.425 373.515 135.165C373.245 134.905 373.11 134.58 373.11 134.19C373.11 133.8 373.245 133.475 373.515 133.215C373.785 132.955 374.115 132.825 374.505 132.825C374.895 132.825 375.225 132.955 375.495 133.215C375.765 133.475 375.9 133.8 375.9 134.19C375.9 134.58 375.765 134.905 375.495 135.165C375.235 135.425 374.91 135.555 374.52 135.555ZM383.781 153.285C382.971 153.255 382.181 153.105 381.411 152.835C380.651 152.555 379.981 152.18 379.401 151.71C378.831 151.23 378.416 150.68 378.156 150.06L380.316 149.13C380.466 149.47 380.736 149.79 381.126 150.09C381.516 150.39 381.966 150.63 382.476 150.81C382.986 150.99 383.501 151.08 384.021 151.08C384.571 151.08 385.086 150.995 385.566 150.825C386.046 150.655 386.436 150.405 386.736 150.075C387.046 149.735 387.201 149.33 387.201 148.86C387.201 148.36 387.031 147.97 386.691 147.69C386.361 147.4 385.941 147.175 385.431 147.015C384.931 146.845 384.421 146.685 383.901 146.535C382.871 146.275 381.951 145.965 381.141 145.605C380.331 145.235 379.691 144.77 379.221 144.21C378.761 143.64 378.531 142.915 378.531 142.035C378.531 141.105 378.786 140.3 379.296 139.62C379.816 138.94 380.496 138.415 381.336 138.045C382.176 137.675 383.076 137.49 384.036 137.49C385.246 137.49 386.351 137.75 387.351 138.27C388.351 138.79 389.096 139.495 389.586 140.385L387.561 141.57C387.391 141.21 387.131 140.895 386.781 140.625C386.431 140.345 386.031 140.125 385.581 139.965C385.131 139.805 384.671 139.72 384.201 139.71C383.621 139.69 383.076 139.765 382.566 139.935C382.066 140.105 381.661 140.365 381.351 140.715C381.051 141.055 380.901 141.48 380.901 141.99C380.901 142.49 381.061 142.87 381.381 143.13C381.711 143.39 382.136 143.6 382.656 143.76C383.186 143.91 383.761 144.085 384.381 144.285C385.291 144.575 386.141 144.91 386.931 145.29C387.721 145.67 388.356 146.145 388.836 146.715C389.326 147.285 389.566 147.99 389.556 148.83C389.556 149.75 389.281 150.555 388.731 151.245C388.181 151.925 387.466 152.445 386.586 152.805C385.716 153.165 384.781 153.325 383.781 153.285ZM399.896 140.52H396.491L396.476 153H393.956L393.971 140.52H391.391V138H393.971L393.956 133.29H396.476L396.491 138H399.896V140.52ZM403.057 153.39C402.677 153.39 402.352 153.255 402.082 152.985C401.822 152.715 401.692 152.385 401.692 151.995C401.692 151.625 401.822 151.305 402.082 151.035C402.352 150.765 402.677 150.63 403.057 150.63C403.447 150.63 403.777 150.765 404.047 151.035C404.317 151.305 404.452 151.625 404.452 151.995C404.452 152.385 404.317 152.715 404.047 152.985C403.777 153.255 403.447 153.39 403.057 153.39Z" fill="white"/>
<defs>
<filter id="filter0_b_4555_58364" x="-8" y="-8" width="594" height="341" filterUnits="userSpaceOnUse" color-interpolation-filters="sRGB">
<feFlood flood-opacity="0" result="BackgroundImageFix"/>
<feGaussianBlur in="BackgroundImageFix" stdDeviation="4"/>
<feComposite in2="SourceAlpha" operator="in" result="effect1_backgroundBlur_4555_58364"/>
<feBlend mode="normal" in="SourceGraphic" in2="effect1_backgroundBlur_4555_58364" result="shape"/>
</filter>
</defs>
</svg>
