<svg width="242" height="78" viewBox="0 0 242 78" fill="none" xmlns="http://www.w3.org/2000/svg">
<rect width="242" height="78" rx="10" fill="#2272A7"/>
<path d="M86.8901 50.39C85.4701 50.39 84.1351 50.11 82.8851 49.55C81.6351 48.98 80.5351 48.2 79.5851 47.21C78.6451 46.21 77.9051 45.05 77.3651 43.73C76.8351 42.41 76.5701 41 76.5701 39.5C76.5701 38 76.8351 36.59 77.3651 35.27C77.9051 33.95 78.6451 32.795 79.5851 31.805C80.5351 30.805 81.6351 30.025 82.8851 29.465C84.1351 28.895 85.4701 28.61 86.8901 28.61C88.5901 28.61 90.1551 29.005 91.5851 29.795C93.0151 30.585 94.2001 31.635 95.1401 32.945L92.9051 34.145C92.2051 33.225 91.3201 32.495 90.2501 31.955C89.1901 31.405 88.0701 31.13 86.8901 31.13C85.8001 31.13 84.7801 31.35 83.8301 31.79C82.8901 32.23 82.0651 32.835 81.3551 33.605C80.6451 34.375 80.0901 35.265 79.6901 36.275C79.2901 37.285 79.0901 38.36 79.0901 39.5C79.0901 40.65 79.2901 41.73 79.6901 42.74C80.1001 43.75 80.6601 44.64 81.3701 45.41C82.0901 46.18 82.9201 46.785 83.8601 47.225C84.8101 47.655 85.8201 47.87 86.8901 47.87C88.1101 47.87 89.2401 47.595 90.2801 47.045C91.3301 46.485 92.2051 45.755 92.9051 44.855L95.1401 46.07C94.2001 47.38 93.0151 48.43 91.5851 49.22C90.1551 50 88.5901 50.39 86.8901 50.39ZM109.386 35H111.906V50H109.386L109.281 47.465C108.811 48.335 108.161 49.04 107.331 49.58C106.511 50.12 105.531 50.39 104.391 50.39C103.291 50.39 102.261 50.185 101.301 49.775C100.341 49.355 99.4914 48.78 98.7514 48.05C98.0214 47.31 97.4514 46.46 97.0414 45.5C96.6314 44.54 96.4264 43.505 96.4264 42.395C96.4264 41.325 96.6264 40.315 97.0264 39.365C97.4264 38.415 97.9814 37.585 98.6914 36.875C99.4114 36.155 100.241 35.595 101.181 35.195C102.121 34.785 103.131 34.58 104.211 34.58C105.391 34.58 106.426 34.86 107.316 35.42C108.206 35.97 108.926 36.685 109.476 37.565L109.386 35ZM104.346 47.945C105.336 47.945 106.191 47.705 106.911 47.225C107.641 46.735 108.201 46.075 108.591 45.245C108.991 44.415 109.191 43.5 109.191 42.5C109.191 41.48 108.991 40.56 108.591 39.74C108.191 38.91 107.626 38.255 106.896 37.775C106.176 37.285 105.326 37.04 104.346 37.04C103.356 37.04 102.456 37.285 101.646 37.775C100.836 38.265 100.191 38.925 99.7114 39.755C99.2414 40.575 99.0064 41.49 99.0064 42.5C99.0064 43.51 99.2514 44.43 99.7414 45.26C100.231 46.08 100.881 46.735 101.691 47.225C102.501 47.705 103.386 47.945 104.346 47.945ZM128.164 40.67V50H125.644V41.225C125.644 40.465 125.459 39.775 125.089 39.155C124.719 38.535 124.224 38.045 123.604 37.685C122.984 37.315 122.294 37.13 121.534 37.13C120.784 37.13 120.094 37.315 119.464 37.685C118.844 38.045 118.349 38.535 117.979 39.155C117.609 39.775 117.424 40.465 117.424 41.225V50H114.904V35H117.424V36.875C117.954 36.175 118.624 35.62 119.434 35.21C120.244 34.79 121.124 34.58 122.074 34.58C123.194 34.58 124.214 34.855 125.134 35.405C126.064 35.945 126.799 36.675 127.339 37.595C127.889 38.515 128.164 39.54 128.164 40.67ZM141.206 46.04L143.456 47.255C142.776 48.205 141.911 48.965 140.861 49.535C139.821 50.105 138.691 50.39 137.471 50.39C136.091 50.39 134.831 50.035 133.691 49.325C132.561 48.615 131.656 47.665 130.976 46.475C130.306 45.275 129.971 43.95 129.971 42.5C129.971 41.4 130.166 40.375 130.556 39.425C130.946 38.465 131.481 37.625 132.161 36.905C132.851 36.175 133.651 35.605 134.561 35.195C135.471 34.785 136.441 34.58 137.471 34.58C138.691 34.58 139.821 34.865 140.861 35.435C141.911 36.005 142.776 36.77 143.456 37.73L141.206 38.945C140.726 38.355 140.156 37.9 139.496 37.58C138.836 37.26 138.161 37.1 137.471 37.1C136.541 37.1 135.696 37.35 134.936 37.85C134.186 38.34 133.591 38.995 133.151 39.815C132.711 40.635 132.491 41.53 132.491 42.5C132.491 43.47 132.711 44.365 133.151 45.185C133.601 45.995 134.201 46.645 134.951 47.135C135.711 47.625 136.551 47.87 137.471 47.87C138.211 47.87 138.906 47.7 139.556 47.36C140.206 47.02 140.756 46.58 141.206 46.04ZM152.501 50.39C151.121 50.39 149.861 50.035 148.721 49.325C147.591 48.615 146.686 47.665 146.006 46.475C145.336 45.275 145.001 43.95 145.001 42.5C145.001 41.4 145.196 40.375 145.586 39.425C145.976 38.465 146.511 37.625 147.191 36.905C147.881 36.175 148.681 35.605 149.591 35.195C150.501 34.785 151.471 34.58 152.501 34.58C153.631 34.58 154.666 34.81 155.606 35.27C156.556 35.72 157.366 36.35 158.036 37.16C158.716 37.97 159.221 38.91 159.551 39.98C159.891 41.05 160.016 42.195 159.926 43.415H147.686C147.806 44.265 148.086 45.025 148.526 45.695C148.966 46.355 149.526 46.88 150.206 47.27C150.896 47.66 151.661 47.86 152.501 47.87C153.401 47.87 154.216 47.64 154.946 47.18C155.676 46.71 156.266 46.07 156.716 45.26L159.281 45.86C158.681 47.19 157.776 48.28 156.566 49.13C155.356 49.97 154.001 50.39 152.501 50.39ZM147.611 41.435H157.391C157.311 40.595 157.041 39.83 156.581 39.14C156.121 38.44 155.536 37.88 154.826 37.46C154.116 37.04 153.341 36.83 152.501 36.83C151.661 36.83 150.891 37.035 150.191 37.445C149.491 37.855 148.911 38.41 148.451 39.11C148.001 39.8 147.721 40.575 147.611 41.435ZM162.307 50V27.5H164.827V50H162.307Z" fill="white"/>
</svg>
