<svg width="170" height="48" viewBox="0 0 170 48" fill="none" xmlns="http://www.w3.org/2000/svg">
<path d="M16.1983 37.5978H38.8603C40.0439 37.5978 41.0297 37.2037 41.8178 36.4156C42.6059 35.6274 43 34.6416 43 33.4581V29.0531H16.1983V37.5978ZM5 18.5447H13.757V10H9.13966C7.95615 10 6.97032 10.3941 6.18219 11.1822C5.39406 11.9703 5 12.9561 5 14.1397V18.5447ZM5 28.0447H13.757V19.6061H5V28.0447ZM9.13966 37.5978H13.757V29.0531H5V33.4694C5 34.656 5.39406 35.6407 6.18219 36.4235C6.97032 37.2064 7.95615 37.5978 9.13966 37.5978ZM16.1983 28.0447H43V19.6061H16.1983V28.0447ZM16.1983 18.5447H43V14.1284C43 12.9418 42.6059 11.9571 41.8178 11.1742C41.0297 10.3914 40.0439 10 38.8603 10H16.1983V18.5447Z" fill="white"/>
<path d="M148.164 34.6928C146.784 34.6928 145.524 34.3378 144.384 33.6278C143.254 32.9178 142.349 31.9628 141.669 30.7628C140.999 29.5628 140.664 28.2378 140.664 26.7878C140.664 25.6978 140.859 24.6778 141.249 23.7278C141.639 22.7678 142.174 21.9278 142.854 21.2078C143.544 20.4778 144.344 19.9078 145.254 19.4978C146.164 19.0878 147.134 18.8828 148.164 18.8828C149.334 18.8828 150.404 19.1328 151.374 19.6328C152.354 20.1228 153.184 20.7978 153.864 21.6578C154.544 22.5178 155.039 23.4978 155.349 24.5978C155.659 25.6978 155.729 26.8478 155.559 28.0478H144.594C144.734 28.6078 144.964 29.1128 145.284 29.5628C145.604 30.0028 146.009 30.3578 146.499 30.6278C146.989 30.8878 147.544 31.0228 148.164 31.0328C148.804 31.0428 149.384 30.8928 149.904 30.5828C150.434 30.2628 150.874 29.8328 151.224 29.2928L154.959 30.1628C154.349 31.4928 153.439 32.5828 152.229 33.4328C151.019 34.2728 149.664 34.6928 148.164 34.6928ZM144.474 25.3028H151.854C151.744 24.7028 151.509 24.1628 151.149 23.6828C150.799 23.1928 150.364 22.8028 149.844 22.5128C149.324 22.2228 148.764 22.0778 148.164 22.0778C147.564 22.0778 147.009 22.2228 146.499 22.5128C145.989 22.7928 145.554 23.1778 145.194 23.6678C144.844 24.1478 144.604 24.6928 144.474 25.3028Z" fill="white"/>
<path d="M133.186 34.573C132.406 34.523 131.651 34.368 130.921 34.108C130.201 33.838 129.561 33.473 129.001 33.013C128.441 32.553 128.011 32.003 127.711 31.363L130.801 30.043C130.921 30.243 131.116 30.458 131.386 30.688C131.656 30.908 131.976 31.093 132.346 31.243C132.726 31.393 133.141 31.468 133.591 31.468C133.971 31.468 134.331 31.418 134.671 31.318C135.021 31.208 135.301 31.043 135.511 30.823C135.731 30.603 135.841 30.318 135.841 29.968C135.841 29.598 135.711 29.313 135.451 29.113C135.201 28.903 134.881 28.748 134.491 28.648C134.111 28.538 133.741 28.438 133.381 28.348C132.431 28.158 131.546 27.863 130.726 27.463C129.916 27.063 129.261 26.548 128.761 25.918C128.271 25.278 128.026 24.508 128.026 23.608C128.026 22.618 128.286 21.763 128.806 21.043C129.336 20.323 130.021 19.768 130.861 19.378C131.711 18.988 132.626 18.793 133.606 18.793C134.796 18.793 135.886 19.043 136.876 19.543C137.876 20.033 138.666 20.728 139.246 21.628L136.351 23.338C136.211 23.098 136.016 22.878 135.766 22.678C135.516 22.468 135.231 22.298 134.911 22.168C134.591 22.028 134.256 21.948 133.906 21.928C133.456 21.908 133.046 21.948 132.676 22.048C132.306 22.148 132.006 22.318 131.776 22.558C131.556 22.798 131.446 23.118 131.446 23.518C131.446 23.898 131.596 24.183 131.896 24.373C132.196 24.553 132.556 24.693 132.976 24.793C133.406 24.893 133.816 25.003 134.206 25.123C135.086 25.413 135.911 25.768 136.681 26.188C137.461 26.608 138.086 27.123 138.556 27.733C139.026 28.343 139.251 29.073 139.231 29.923C139.231 30.893 138.941 31.743 138.361 32.473C137.781 33.193 137.031 33.743 136.111 34.123C135.201 34.503 134.226 34.653 133.186 34.573Z" fill="white"/>
<path d="M111.511 34.3047H107.881L102.871 19.3047H106.456L109.711 29.0097L112.951 19.3047H116.566L119.806 29.0097L123.061 19.3047H126.646L121.636 34.3047H118.006L114.751 24.5547L111.511 34.3047Z" fill="white"/>
<path d="M94.6367 34.6928C93.2567 34.6928 91.9967 34.3378 90.8567 33.6278C89.7267 32.9178 88.8217 31.9678 88.1417 30.7778C87.4717 29.5778 87.1367 28.2528 87.1367 26.8028C87.1367 25.7028 87.3317 24.6778 87.7217 23.7278C88.1117 22.7678 88.6467 21.9278 89.3267 21.2078C90.0167 20.4778 90.8167 19.9078 91.7267 19.4978C92.6367 19.0878 93.6067 18.8828 94.6367 18.8828C96.0167 18.8828 97.2717 19.2378 98.4017 19.9478C99.5417 20.6578 100.447 21.6128 101.117 22.8128C101.797 24.0128 102.137 25.3428 102.137 26.8028C102.137 27.8928 101.942 28.9128 101.552 29.8628C101.162 30.8128 100.622 31.6528 99.9317 32.3828C99.2517 33.1028 98.4567 33.6678 97.5467 34.0778C96.6467 34.4878 95.6767 34.6928 94.6367 34.6928ZM94.6367 31.0328C95.3667 31.0328 96.0217 30.8378 96.6017 30.4478C97.1817 30.0578 97.6367 29.5428 97.9667 28.9028C98.3067 28.2628 98.4767 27.5628 98.4767 26.8028C98.4767 26.0228 98.3017 25.3128 97.9517 24.6728C97.6117 24.0228 97.1467 23.5078 96.5567 23.1278C95.9767 22.7378 95.3367 22.5428 94.6367 22.5428C93.9167 22.5428 93.2667 22.7378 92.6867 23.1278C92.1067 23.5178 91.6467 24.0378 91.3067 24.6878C90.9667 25.3378 90.7967 26.0428 90.7967 26.8028C90.7967 27.5928 90.9717 28.3078 91.3217 28.9478C91.6717 29.5878 92.1367 30.0978 92.7167 30.4778C93.3067 30.8478 93.9467 31.0328 94.6367 31.0328Z" fill="white"/>
<path d="M77.6244 34.3028L77.6094 19.3028H81.2694L81.2844 20.6378C81.7944 20.0978 82.4044 19.6728 83.1144 19.3628C83.8244 19.0428 84.5894 18.8828 85.4094 18.8828C85.9594 18.8828 86.5094 18.9628 87.0594 19.1228L85.6194 22.8128C85.2394 22.6628 84.8594 22.5878 84.4794 22.5878C83.8894 22.5878 83.3494 22.7328 82.8594 23.0228C82.3794 23.3028 81.9944 23.6878 81.7044 24.1778C81.4244 24.6578 81.2844 25.1928 81.2844 25.7828V34.3028H77.6244Z" fill="white"/>
<path d="M60 34.3047V13.3047H67.65C68.76 13.3047 69.76 13.5347 70.65 13.9947C71.55 14.4447 72.26 15.0947 72.78 15.9447C73.31 16.7847 73.575 17.7797 73.575 18.9297C73.575 19.4397 73.5 19.9547 73.35 20.4747C73.2 20.9947 72.97 21.4647 72.66 21.8847C72.35 22.2947 71.95 22.5997 71.46 22.7997C72.11 22.9597 72.64 23.2497 73.05 23.6697C73.46 24.0897 73.78 24.5847 74.01 25.1547C74.24 25.7147 74.395 26.2897 74.475 26.8797C74.565 27.4597 74.61 27.9997 74.61 28.4997C74.61 29.6097 74.335 30.5997 73.785 31.4697C73.235 32.3397 72.495 33.0297 71.565 33.5397C70.645 34.0497 69.625 34.3047 68.505 34.3047H60ZM63.66 31.1697H68.13C68.73 31.1697 69.27 31.0247 69.75 30.7347C70.23 30.4447 70.615 30.0447 70.905 29.5347C71.195 29.0247 71.34 28.4447 71.34 27.7947C71.34 27.2347 71.195 26.7047 70.905 26.2047C70.615 25.7047 70.23 25.2997 69.75 24.9897C69.27 24.6797 68.73 24.5247 68.13 24.5247H63.66V31.1697ZM63.66 21.4347H67.23C67.97 21.4347 68.6 21.2047 69.12 20.7447C69.65 20.2847 69.915 19.6747 69.915 18.9147C69.915 18.1047 69.65 17.4947 69.12 17.0847C68.6 16.6647 67.97 16.4547 67.23 16.4547H63.66V21.4347Z" fill="white"/>
</svg>
