<svg width="224" height="158" viewBox="0 0 224 158" fill="none" xmlns="http://www.w3.org/2000/svg">
<path d="M0 10.604C0 4.74759 4.47715 0 10 0H214C219.523 0 224 4.74759 224 10.604V147.396C224 153.252 219.523 158 214 158H10C4.47715 158 0 153.252 0 147.396V10.604Z" fill="#2272A7" fill-opacity="0.6"/>
<path d="M8 1.0604C8 0.474759 8.44772 0 9 0H215C215.552 0 216 0.474759 216 1.0604C216 1.64605 215.552 2.12081 215 2.12081H9C8.44772 2.12081 8 1.64605 8 1.0604Z" fill="url(#paint0_linear_5196_58022)"/>
<path d="M0.5 10.604C0.5 5.91888 3.48728 2.01021 7.51372 0.850356C7.50466 0.919343 7.5 0.989485 7.5 1.0604C7.5 1.89416 8.14436 2.62081 9 2.62081H215C215.856 2.62081 216.5 1.89415 216.5 1.0604C216.5 0.989486 216.495 0.91934 216.486 0.850354C220.513 2.0102 223.5 5.91887 223.5 10.604V147.396C223.5 153.004 219.219 157.5 214 157.5H10C4.78052 157.5 0.5 153.004 0.5 147.396V10.604ZM8.5 1.0604C8.5 0.850484 8.59711 0.684916 8.73042 0.589726C9.14599 0.53054 9.56981 0.5 10 0.5H214C214.43 0.5 214.854 0.53054 215.27 0.589725C215.403 0.684914 215.5 0.850484 215.5 1.0604C215.5 1.39794 215.249 1.62081 215 1.62081H9C8.75108 1.62081 8.5 1.39793 8.5 1.0604Z" stroke="white"/>
<defs>
<linearGradient id="paint0_linear_5196_58022" x1="8" y1="1.0604" x2="216" y2="1.0604" gradientUnits="userSpaceOnUse">
<stop stop-color="#71CCF0" stop-opacity="0"/>
<stop offset="0.499895" stop-color="#71CCF0"/>
<stop offset="1" stop-color="#71CCF0" stop-opacity="0"/>
</linearGradient>
</defs>
</svg>
