<svg width="48" height="48" viewBox="0 0 48 48" fill="none" xmlns="http://www.w3.org/2000/svg">
<path d="M21.635 39.6614C17.3216 35.7126 16.1327 34.5004 13.6115 31.9185C11.0903 29.3365 9.19944 27.195 7.93885 25.494C6.67826 23.793 5.8733 22.3425 5.52398 21.1427C5.17466 19.9428 5 18.7658 5 17.6115C5 15.2726 5.84293 13.2526 7.52878 11.5516C9.21463 9.85052 11.2422 9 13.6115 9C15.0088 9 16.4061 9.39488 17.8034 10.1847C19.2006 10.9744 20.4612 12.0983 21.5851 13.5564C22.709 12.0983 23.9696 10.9744 25.3669 10.1847C26.7642 9.39488 28.1615 9 29.5588 9C32.0799 9 34.2898 9.94924 36.1882 11.8477C38.0867 13.7462 38.8841 16.3661 38.5803 19.7074C37.9121 19.2214 37.2362 18.7886 36.5528 18.4089C35.8693 18.0292 35.1783 17.8393 34.4796 17.8393C31.0168 17.8697 28.4121 18.7506 26.6655 20.482C24.9189 22.2134 24.0456 24.3701 24.0456 26.952C24.0456 28.3189 24.3417 29.6023 24.9341 30.8022C25.5264 32.002 26.3693 33.0424 27.4628 33.9233L25.2758 36.1103C24.4253 36.9608 23.6203 37.7506 22.8609 38.4796L21.635 39.6614ZM35.3453 31.6451L30.789 27.0432L32.247 25.494L35.3453 28.6835L41.542 22.3957L43 23.9448L35.3453 31.6451Z" fill="white"/>
</svg>
