<svg width="64" height="64" viewBox="0 0 64 64" fill="none" xmlns="http://www.w3.org/2000/svg">
<path d="M21.3443 53.2784V49.8858H12.4205C11.8305 49.8858 11.2897 49.64 10.798 49.1483C10.3063 48.6566 10.0605 48.1158 10.0605 47.5258V13.1603H50.2546L49.8858 39.9295H53.2784V12.4205C53.2784 10.8118 52.7304 9.45083 51.6345 8.33768C50.539 7.22454 49.1695 6.66797 47.5258 6.66797L18.3206 6.67027L12.4205 6.66797C10.8118 6.66797 9.45082 7.22454 8.33768 8.33768C7.22454 9.45083 6.66797 10.8118 6.66797 12.4205V47.5258C6.66797 49.135 7.22454 50.496 8.33768 51.6086C9.45082 52.7218 10.8118 53.2784 12.4205 53.2784H21.3443ZM38.602 57.0396L40.962 54.6796L35.947 49.5171H57.3346V46.1245H35.947L40.962 40.962L38.602 38.602L29.5307 47.8208L38.602 57.0396Z" fill="white"/>
<path d="M27.9081 38.5282V24.3681L38.5282 31.4482L27.9081 38.5282Z" fill="white"/>
</svg>
