<svg width="48" height="48" viewBox="0 0 48 48" fill="none" xmlns="http://www.w3.org/2000/svg">
<path d="M24.0726 43C23.1633 43 22.4071 42.6938 21.8039 42.0813C21.2007 41.4688 20.8992 40.7106 20.8992 39.8067C20.8992 39.155 21.0766 38.5663 21.4314 38.0406C21.7862 37.5149 22.2829 37.1457 22.9216 36.9328V30.5462H17.1737C15.9877 30.5462 14.9993 30.1528 14.2086 29.3659C13.4178 28.579 13.0224 27.5953 13.0224 26.4148V22.9888C12.3838 22.7049 11.887 22.3058 11.5322 21.7913C11.1774 21.2768 11 20.718 11 20.1148C11 19.211 11.3082 18.4528 11.9246 17.8403C12.5409 17.2278 13.3037 16.9216 14.2131 16.9216C15.1224 16.9216 15.8786 17.2278 16.4818 17.8403C17.085 18.4528 17.3866 19.211 17.3866 20.1148C17.3866 20.718 17.218 21.3035 16.881 21.8711C16.5439 22.4388 16.0738 22.8114 15.4706 22.9888V26.395C15.4706 26.8207 15.648 27.211 16.0028 27.5658C16.3576 27.9206 16.7479 28.098 17.1737 28.098H22.8683V10.8543H19.0896L24.0924 5L29.0952 10.8543H25.3165V28.098H31.0112C31.437 28.098 31.8273 27.9206 32.1821 27.5658C32.5369 27.211 32.7143 26.8207 32.7143 26.395V23.3081H30.7451V16.9216H37.1317V23.3081H35.1625V26.395C35.1625 27.5809 34.7671 28.5693 33.9763 29.3601C33.1855 30.1508 32.1972 30.5462 31.0112 30.5462H25.3697V36.9328C25.9765 37.1495 26.4475 37.531 26.7828 38.0773C27.1181 38.6236 27.2857 39.199 27.2857 39.8036C27.2857 40.7202 26.9775 41.4821 26.3612 42.0892C25.7448 42.6964 24.982 43 24.0726 43Z" fill="#71CCF0"/>
</svg>
