<svg width="96" height="137" viewBox="0 0 96 137" fill="none" xmlns="http://www.w3.org/2000/svg">
<path d="M14.9473 91.1998C12.6845 91.1998 10.7473 90.3941 9.13589 88.7827C7.52446 87.1712 6.71875 85.2341 6.71875 82.9712V28.0455L63.9073 4.7998L66.5816 11.5884L32.6388 25.3712H80.7759C83.0388 25.3712 84.9759 26.1769 86.5873 27.7884C88.1988 29.3998 89.0045 31.3369 89.0045 33.5998V82.9712C89.0045 85.2341 88.1988 87.1712 86.5873 88.7827C84.9759 90.3941 83.0388 91.1998 80.7759 91.1998H14.9473ZM31.4045 78.8569C34.2845 78.8569 36.7188 77.8627 38.7073 75.8741C40.6959 73.8855 41.6902 71.4512 41.6902 68.5712C41.6902 65.6912 40.6959 63.2569 38.7073 61.2684C36.7188 59.2798 34.2845 58.2855 31.4045 58.2855C28.5245 58.2855 26.0902 59.2798 24.1016 61.2684C22.113 63.2569 21.1188 65.6912 21.1188 68.5712C21.1188 71.4512 22.113 73.8855 24.1016 75.8741C26.0902 77.8627 28.5245 78.8569 31.4045 78.8569ZM14.9473 45.9427H64.3188V37.7141H72.5473V45.9427H80.7759V33.5998H14.9473V45.9427Z" fill="white"/>
<path d="M18.4453 131V113.5H24.5953C25.5286 113.5 26.3703 113.729 27.1203 114.187C27.8786 114.646 28.4786 115.267 28.9203 116.05C29.3703 116.825 29.5953 117.692 29.5953 118.65C29.5953 119.492 29.4286 120.258 29.0953 120.95C28.762 121.642 28.3036 122.221 27.7203 122.687C27.1453 123.146 26.4911 123.462 25.7578 123.637L30.0078 131H27.5828L23.4078 123.812H20.5453V131H18.4453ZM20.5453 121.712H24.3828C24.9495 121.712 25.4703 121.575 25.9453 121.3C26.4203 121.017 26.7953 120.637 27.0703 120.162C27.3536 119.679 27.4953 119.137 27.4953 118.537C27.4953 117.929 27.3536 117.387 27.0703 116.912C26.7953 116.429 26.4203 116.05 25.9453 115.775C25.4703 115.492 24.9495 115.35 24.3828 115.35H20.5453V121.712ZM42.1184 118.5H44.2184V131H42.1184L42.0309 128.887C41.6392 129.612 41.0975 130.2 40.4059 130.65C39.7225 131.1 38.9059 131.325 37.9559 131.325C37.0392 131.325 36.1809 131.154 35.3809 130.812C34.5809 130.462 33.8725 129.983 33.2559 129.375C32.6475 128.758 32.1725 128.05 31.8309 127.25C31.4892 126.45 31.3184 125.587 31.3184 124.662C31.3184 123.771 31.485 122.929 31.8184 122.137C32.1517 121.346 32.6142 120.654 33.2059 120.062C33.8059 119.462 34.4975 118.996 35.2809 118.662C36.0642 118.321 36.9059 118.15 37.8059 118.15C38.7892 118.15 39.6517 118.383 40.3934 118.85C41.135 119.308 41.735 119.904 42.1934 120.637L42.1184 118.5ZM37.9184 129.287C38.7434 129.287 39.4559 129.087 40.0559 128.687C40.6642 128.279 41.1309 127.729 41.4559 127.037C41.7892 126.346 41.9559 125.583 41.9559 124.75C41.9559 123.9 41.7892 123.133 41.4559 122.45C41.1225 121.758 40.6517 121.212 40.0434 120.812C39.4434 120.404 38.735 120.2 37.9184 120.2C37.0934 120.2 36.3434 120.404 35.6684 120.812C34.9934 121.221 34.4559 121.771 34.0559 122.462C33.6642 123.146 33.4684 123.908 33.4684 124.75C33.4684 125.592 33.6725 126.358 34.0809 127.05C34.4892 127.733 35.0309 128.279 35.7059 128.687C36.3809 129.087 37.1184 129.287 37.9184 129.287ZM56.5352 112.25H58.6352V131H56.5352V128.875C56.1102 129.608 55.5393 130.2 54.8227 130.65C54.106 131.1 53.2643 131.325 52.2977 131.325C51.3893 131.325 50.5393 131.154 49.7477 130.812C48.956 130.471 48.256 130 47.6477 129.4C47.0477 128.792 46.5768 128.092 46.2352 127.3C45.8935 126.508 45.7227 125.658 45.7227 124.75C45.7227 123.842 45.8935 122.992 46.2352 122.2C46.5768 121.4 47.0477 120.7 47.6477 120.1C48.256 119.492 48.956 119.017 49.7477 118.675C50.5393 118.333 51.3893 118.162 52.2977 118.162C53.2643 118.162 54.106 118.387 54.8227 118.837C55.5393 119.287 56.1102 119.879 56.5352 120.612V112.25ZM52.3227 129.287C53.1477 129.287 53.8602 129.087 54.4602 128.687C55.0685 128.279 55.5352 127.729 55.8602 127.037C56.1935 126.346 56.3602 125.583 56.3602 124.75C56.3602 123.9 56.1935 123.133 55.8602 122.45C55.5268 121.758 55.056 121.212 54.4477 120.812C53.8477 120.404 53.1393 120.2 52.3227 120.2C51.4977 120.2 50.7477 120.404 50.0727 120.812C49.406 121.221 48.8727 121.771 48.4727 122.462C48.0727 123.146 47.8727 123.908 47.8727 124.75C47.8727 125.592 48.0768 126.358 48.4852 127.05C48.8935 127.733 49.4352 128.279 50.1102 128.687C50.7852 129.087 51.5227 129.287 52.3227 129.287ZM61.6338 118.5H63.7338V131H61.6338V118.5ZM62.7088 116.462C62.3755 116.462 62.0963 116.354 61.8713 116.137C61.6463 115.921 61.5338 115.65 61.5338 115.325C61.5338 115 61.6463 114.729 61.8713 114.512C62.0963 114.296 62.3713 114.187 62.6963 114.187C63.0213 114.187 63.2963 114.296 63.5213 114.512C63.7463 114.729 63.8588 115 63.8588 115.325C63.8588 115.65 63.7463 115.921 63.5213 116.137C63.3046 116.354 63.0338 116.462 62.7088 116.462ZM72.0654 131.325C70.9154 131.325 69.8654 131.029 68.9154 130.437C67.9738 129.846 67.2196 129.054 66.6529 128.062C66.0946 127.062 65.8154 125.958 65.8154 124.75C65.8154 123.833 65.9779 122.979 66.3029 122.187C66.6279 121.387 67.0738 120.687 67.6404 120.087C68.2154 119.479 68.8821 119.004 69.6404 118.662C70.3988 118.321 71.2071 118.15 72.0654 118.15C73.2154 118.15 74.2613 118.446 75.2029 119.037C76.1529 119.629 76.9071 120.425 77.4654 121.425C78.0321 122.425 78.3154 123.533 78.3154 124.75C78.3154 125.658 78.1529 126.508 77.8279 127.3C77.5029 128.092 77.0529 128.792 76.4779 129.4C75.9113 130 75.2488 130.471 74.4904 130.812C73.7404 131.154 72.9321 131.325 72.0654 131.325ZM72.0654 129.225C72.8488 129.225 73.5529 129.021 74.1779 128.612C74.8113 128.196 75.3071 127.65 75.6654 126.975C76.0321 126.292 76.2154 125.55 76.2154 124.75C76.2154 123.933 76.0279 123.183 75.6529 122.5C75.2863 121.817 74.7904 121.271 74.1654 120.862C73.5404 120.454 72.8404 120.25 72.0654 120.25C71.2821 120.25 70.5779 120.458 69.9529 120.875C69.3279 121.283 68.8321 121.829 68.4654 122.512C68.0988 123.196 67.9154 123.942 67.9154 124.75C67.9154 125.583 68.1029 126.342 68.4779 127.025C68.8529 127.7 69.3571 128.237 69.9904 128.637C70.6238 129.029 71.3154 129.225 72.0654 129.225Z" fill="white"/>
</svg>
