<svg width="629" height="50" viewBox="0 0 629 50" fill="none" xmlns="http://www.w3.org/2000/svg">
<rect width="629" height="50" rx="10" fill="white"/>
<path d="M21.5 34V16.5H27.65C28.5833 16.5 29.425 16.7292 30.175 17.1875C30.9333 17.6458 31.5333 18.2667 31.975 19.05C32.425 19.825 32.65 20.6917 32.65 21.65C32.65 22.4917 32.4833 23.2583 32.15 23.95C31.8167 24.6417 31.3583 25.2208 30.775 25.6875C30.2 26.1458 29.5458 26.4625 28.8125 26.6375L33.0625 34H30.6375L26.4625 26.8125H23.6V34H21.5ZM23.6 24.7125H27.4375C28.0042 24.7125 28.525 24.575 29 24.3C29.475 24.0167 29.85 23.6375 30.125 23.1625C30.4083 22.6792 30.55 22.1375 30.55 21.5375C30.55 20.9292 30.4083 20.3875 30.125 19.9125C29.85 19.4292 29.475 19.05 29 18.775C28.525 18.4917 28.0042 18.35 27.4375 18.35H23.6V24.7125ZM40.623 34.325C39.473 34.325 38.423 34.0292 37.473 33.4375C36.5314 32.8458 35.7772 32.0542 35.2105 31.0625C34.6522 30.0625 34.373 28.9583 34.373 27.75C34.373 26.8333 34.5355 25.9792 34.8605 25.1875C35.1855 24.3875 35.6314 23.6875 36.198 23.0875C36.773 22.4792 37.4397 22.0042 38.198 21.6625C38.9564 21.3208 39.7647 21.15 40.623 21.15C41.5647 21.15 42.4272 21.3417 43.2105 21.725C44.0022 22.1 44.6772 22.625 45.2355 23.3C45.8022 23.975 46.223 24.7583 46.498 25.65C46.7814 26.5417 46.8855 27.4958 46.8105 28.5125H36.6105C36.7105 29.2208 36.9439 29.8542 37.3105 30.4125C37.6772 30.9625 38.1439 31.4 38.7105 31.725C39.2855 32.05 39.923 32.2167 40.623 32.225C41.373 32.225 42.0522 32.0333 42.6605 31.65C43.2689 31.2583 43.7605 30.725 44.1355 30.05L46.273 30.55C45.773 31.6583 45.0189 32.5667 44.0105 33.275C43.0022 33.975 41.873 34.325 40.623 34.325ZM36.548 26.8625H44.698C44.6314 26.1625 44.4064 25.525 44.023 24.95C43.6397 24.3667 43.1522 23.9 42.5605 23.55C41.9689 23.2 41.323 23.025 40.623 23.025C39.923 23.025 39.2814 23.1958 38.698 23.5375C38.1147 23.8792 37.6314 24.3417 37.248 24.925C36.873 25.5 36.6397 26.1458 36.548 26.8625ZM48.917 34V21.5H51.017V23.0625C51.4587 22.4792 52.0128 22.0167 52.6795 21.675C53.3545 21.325 54.0878 21.15 54.8795 21.15C55.8045 21.15 56.6503 21.375 57.417 21.825C58.1837 22.275 58.7878 22.8708 59.2295 23.6125C59.6712 22.8708 60.2712 22.275 61.0295 21.825C61.7962 21.375 62.6378 21.15 63.5545 21.15C64.4962 21.15 65.3503 21.3792 66.117 21.8375C66.8837 22.2875 67.492 22.8958 67.942 23.6625C68.4003 24.4292 68.6295 25.2833 68.6295 26.225V34H66.5295V26.725C66.5295 26.1083 66.3795 25.5375 66.0795 25.0125C65.7795 24.4875 65.3753 24.0667 64.867 23.75C64.3587 23.4333 63.7962 23.275 63.1795 23.275C62.5628 23.275 62.0003 23.425 61.492 23.725C60.9837 24.0167 60.5795 24.425 60.2795 24.95C59.9795 25.4667 59.8295 26.0583 59.8295 26.725V34H57.7295V26.725C57.7295 26.0583 57.5795 25.4667 57.2795 24.95C56.9795 24.425 56.5712 24.0167 56.0545 23.725C55.5462 23.425 54.9837 23.275 54.367 23.275C53.7587 23.275 53.1962 23.4333 52.6795 23.75C52.1712 24.0667 51.767 24.4875 51.467 25.0125C51.167 25.5375 51.017 26.1083 51.017 26.725V34H48.917ZM76.3896 34.325C75.2396 34.325 74.1896 34.0292 73.2396 33.4375C72.298 32.8458 71.5438 32.0542 70.9771 31.0625C70.4188 30.0625 70.1396 28.9583 70.1396 27.75C70.1396 26.8333 70.3021 25.9792 70.6271 25.1875C70.9521 24.3875 71.398 23.6875 71.9646 23.0875C72.5396 22.4792 73.2063 22.0042 73.9646 21.6625C74.723 21.3208 75.5313 21.15 76.3896 21.15C77.5396 21.15 78.5855 21.4458 79.5271 22.0375C80.4771 22.6292 81.2313 23.425 81.7896 24.425C82.3563 25.425 82.6396 26.5333 82.6396 27.75C82.6396 28.6583 82.4771 29.5083 82.1521 30.3C81.8271 31.0917 81.3771 31.7917 80.8021 32.4C80.2355 33 79.573 33.4708 78.8146 33.8125C78.0646 34.1542 77.2563 34.325 76.3896 34.325ZM76.3896 32.225C77.173 32.225 77.8771 32.0208 78.5021 31.6125C79.1355 31.1958 79.6313 30.65 79.9896 29.975C80.3563 29.2917 80.5396 28.55 80.5396 27.75C80.5396 26.9333 80.3521 26.1833 79.9771 25.5C79.6105 24.8167 79.1146 24.2708 78.4896 23.8625C77.8646 23.4542 77.1646 23.25 76.3896 23.25C75.6063 23.25 74.9021 23.4583 74.2771 23.875C73.6521 24.2833 73.1563 24.8292 72.7896 25.5125C72.423 26.1958 72.2396 26.9417 72.2396 27.75C72.2396 28.5833 72.4271 29.3417 72.8021 30.025C73.1771 30.7 73.6813 31.2375 74.3146 31.6375C74.948 32.0292 75.6396 32.225 76.3896 32.225ZM90.6709 34H87.9834L83.4209 21.475H85.6584L89.3209 31.5625L92.9834 21.475H95.2209L90.6709 34ZM102.269 34.325C101.119 34.325 100.069 34.0292 99.1186 33.4375C98.1769 32.8458 97.4227 32.0542 96.8561 31.0625C96.2977 30.0625 96.0186 28.9583 96.0186 27.75C96.0186 26.8333 96.1811 25.9792 96.5061 25.1875C96.8311 24.3875 97.2769 23.6875 97.8436 23.0875C98.4186 22.4792 99.0852 22.0042 99.8436 21.6625C100.602 21.3208 101.41 21.15 102.269 21.15C103.21 21.15 104.073 21.3417 104.856 21.725C105.648 22.1 106.323 22.625 106.881 23.3C107.448 23.975 107.869 24.7583 108.144 25.65C108.427 26.5417 108.531 27.4958 108.456 28.5125H98.2561C98.3561 29.2208 98.5894 29.8542 98.9561 30.4125C99.3227 30.9625 99.7894 31.4 100.356 31.725C100.931 32.05 101.569 32.2167 102.269 32.225C103.019 32.225 103.698 32.0333 104.306 31.65C104.914 31.2583 105.406 30.725 105.781 30.05L107.919 30.55C107.419 31.6583 106.664 32.5667 105.656 33.275C104.648 33.975 103.519 34.325 102.269 34.325ZM98.1936 26.8625H106.344C106.277 26.1625 106.052 25.525 105.669 24.95C105.285 24.3667 104.798 23.9 104.206 23.55C103.614 23.2 102.969 23.025 102.269 23.025C101.569 23.025 100.927 23.1958 100.344 23.5375C99.7602 23.8792 99.2769 24.3417 98.8936 24.925C98.5186 25.5 98.2852 26.1458 98.1936 26.8625ZM120.552 15.25H122.652V34H120.552V31.875C120.127 32.6083 119.556 33.2 118.839 33.65C118.123 34.1 117.281 34.325 116.314 34.325C115.406 34.325 114.556 34.1542 113.764 33.8125C112.973 33.4708 112.273 33 111.664 32.4C111.064 31.7917 110.593 31.0917 110.252 30.3C109.91 29.5083 109.739 28.6583 109.739 27.75C109.739 26.8417 109.91 25.9917 110.252 25.2C110.593 24.4 111.064 23.7 111.664 23.1C112.273 22.4917 112.973 22.0167 113.764 21.675C114.556 21.3333 115.406 21.1625 116.314 21.1625C117.281 21.1625 118.123 21.3875 118.839 21.8375C119.556 22.2875 120.127 22.8792 120.552 23.6125V15.25ZM116.339 32.2875C117.164 32.2875 117.877 32.0875 118.477 31.6875C119.085 31.2792 119.552 30.7292 119.877 30.0375C120.21 29.3458 120.377 28.5833 120.377 27.75C120.377 26.9 120.21 26.1333 119.877 25.45C119.543 24.7583 119.073 24.2125 118.464 23.8125C117.864 23.4042 117.156 23.2 116.339 23.2C115.514 23.2 114.764 23.4042 114.089 23.8125C113.423 24.2208 112.889 24.7708 112.489 25.4625C112.089 26.1458 111.889 26.9083 111.889 27.75C111.889 28.5917 112.093 29.3583 112.502 30.05C112.91 30.7333 113.452 31.2792 114.127 31.6875C114.802 32.0875 115.539 32.2875 116.339 32.2875ZM134.494 18.4125V21.5H138.156V23.6H134.494V34H132.394V23.6H130.781V21.5H132.394V18.4125C132.394 17.7708 132.548 17.1917 132.856 16.675C133.173 16.15 133.594 15.7333 134.119 15.425C134.652 15.1083 135.235 14.95 135.869 14.95C136.335 14.95 136.79 15.0458 137.231 15.2375C137.673 15.4208 138.065 15.6958 138.406 16.0625L136.906 17.55C136.79 17.3917 136.635 17.2708 136.444 17.1875C136.26 17.0958 136.069 17.05 135.869 17.05C135.494 17.05 135.169 17.1833 134.894 17.45C134.627 17.7167 134.494 18.0375 134.494 18.4125ZM140.494 34V21.5H142.594V23.0625C143.036 22.4792 143.594 22.0167 144.269 21.675C144.944 21.325 145.677 21.15 146.469 21.15C146.952 21.15 147.419 21.2125 147.869 21.3375L147.019 23.4375C146.677 23.3292 146.344 23.275 146.019 23.275C145.394 23.275 144.819 23.4292 144.294 23.7375C143.777 24.0375 143.365 24.4458 143.057 24.9625C142.748 25.4792 142.594 26.0542 142.594 26.6875V34H140.494ZM154.271 34.325C153.121 34.325 152.071 34.0292 151.121 33.4375C150.179 32.8458 149.425 32.0542 148.858 31.0625C148.3 30.0625 148.021 28.9583 148.021 27.75C148.021 26.8333 148.183 25.9792 148.508 25.1875C148.833 24.3875 149.279 23.6875 149.846 23.0875C150.421 22.4792 151.087 22.0042 151.846 21.6625C152.604 21.3208 153.412 21.15 154.271 21.15C155.421 21.15 156.466 21.4458 157.408 22.0375C158.358 22.6292 159.112 23.425 159.671 24.425C160.237 25.425 160.521 26.5333 160.521 27.75C160.521 28.6583 160.358 29.5083 160.033 30.3C159.708 31.0917 159.258 31.7917 158.683 32.4C158.116 33 157.454 33.4708 156.696 33.8125C155.946 34.1542 155.137 34.325 154.271 34.325ZM154.271 32.225C155.054 32.225 155.758 32.0208 156.383 31.6125C157.016 31.1958 157.512 30.65 157.871 29.975C158.237 29.2917 158.421 28.55 158.421 27.75C158.421 26.9333 158.233 26.1833 157.858 25.5C157.491 24.8167 156.996 24.2708 156.371 23.8625C155.746 23.4542 155.046 23.25 154.271 23.25C153.487 23.25 152.783 23.4583 152.158 23.875C151.533 24.2833 151.037 24.8292 150.671 25.5125C150.304 26.1958 150.121 26.9417 150.121 27.75C150.121 28.5833 150.308 29.3417 150.683 30.025C151.058 30.7 151.562 31.2375 152.196 31.6375C152.829 32.0292 153.521 32.225 154.271 32.225ZM162.589 34V21.5H164.689V23.0625C165.131 22.4792 165.685 22.0167 166.351 21.675C167.026 21.325 167.76 21.15 168.551 21.15C169.476 21.15 170.322 21.375 171.089 21.825C171.856 22.275 172.46 22.8708 172.901 23.6125C173.343 22.8708 173.943 22.275 174.701 21.825C175.468 21.375 176.31 21.15 177.226 21.15C178.168 21.15 179.022 21.3792 179.789 21.8375C180.556 22.2875 181.164 22.8958 181.614 23.6625C182.072 24.4292 182.301 25.2833 182.301 26.225V34H180.201V26.725C180.201 26.1083 180.051 25.5375 179.751 25.0125C179.451 24.4875 179.047 24.0667 178.539 23.75C178.031 23.4333 177.468 23.275 176.851 23.275C176.235 23.275 175.672 23.425 175.164 23.725C174.656 24.0167 174.251 24.425 173.951 24.95C173.651 25.4667 173.501 26.0583 173.501 26.725V34H171.401V26.725C171.401 26.0583 171.251 25.4667 170.951 24.95C170.651 24.425 170.243 24.0167 169.726 23.725C169.218 23.425 168.656 23.275 168.039 23.275C167.431 23.275 166.868 23.4333 166.351 23.75C165.843 24.0667 165.439 24.4875 165.139 25.0125C164.839 25.5375 164.689 26.1083 164.689 26.725V34H162.589ZM190.812 34V16.5H201.074V18.6H192.912V23.575H199.874V25.675H192.912V34H190.812ZM211.726 21.5H213.826V34H211.726L211.638 31.8875C211.247 32.6125 210.705 33.2 210.013 33.65C209.33 34.1 208.513 34.325 207.563 34.325C206.647 34.325 205.788 34.1542 204.988 33.8125C204.188 33.4625 203.48 32.9833 202.863 32.375C202.255 31.7583 201.78 31.05 201.438 30.25C201.097 29.45 200.926 28.5875 200.926 27.6625C200.926 26.7708 201.092 25.9292 201.426 25.1375C201.759 24.3458 202.222 23.6542 202.813 23.0625C203.413 22.4625 204.105 21.9958 204.888 21.6625C205.672 21.3208 206.513 21.15 207.413 21.15C208.397 21.15 209.259 21.3833 210.001 21.85C210.742 22.3083 211.342 22.9042 211.801 23.6375L211.726 21.5ZM207.526 32.2875C208.351 32.2875 209.063 32.0875 209.663 31.6875C210.272 31.2792 210.738 30.7292 211.063 30.0375C211.397 29.3458 211.563 28.5833 211.563 27.75C211.563 26.9 211.397 26.1333 211.063 25.45C210.73 24.7583 210.259 24.2125 209.651 23.8125C209.051 23.4042 208.342 23.2 207.526 23.2C206.701 23.2 205.951 23.4042 205.276 23.8125C204.601 24.2208 204.063 24.7708 203.663 25.4625C203.272 26.1458 203.076 26.9083 203.076 27.75C203.076 28.5917 203.28 29.3583 203.688 30.05C204.097 30.7333 204.638 31.2792 205.313 31.6875C205.988 32.0875 206.726 32.2875 207.526 32.2875ZM222.482 34H219.795L215.232 21.475H217.47L221.132 31.5625L224.795 21.475H227.032L222.482 34ZM234.08 34.325C232.93 34.325 231.88 34.0292 230.93 33.4375C229.988 32.8458 229.234 32.0542 228.668 31.0625C228.109 30.0625 227.83 28.9583 227.83 27.75C227.83 26.8333 227.993 25.9792 228.318 25.1875C228.643 24.3875 229.088 23.6875 229.655 23.0875C230.23 22.4792 230.897 22.0042 231.655 21.6625C232.413 21.3208 233.222 21.15 234.08 21.15C235.23 21.15 236.276 21.4458 237.218 22.0375C238.168 22.6292 238.922 23.425 239.48 24.425C240.047 25.425 240.33 26.5333 240.33 27.75C240.33 28.6583 240.168 29.5083 239.843 30.3C239.518 31.0917 239.068 31.7917 238.493 32.4C237.926 33 237.263 33.4708 236.505 33.8125C235.755 34.1542 234.947 34.325 234.08 34.325ZM234.08 32.225C234.863 32.225 235.568 32.0208 236.193 31.6125C236.826 31.1958 237.322 30.65 237.68 29.975C238.047 29.2917 238.23 28.55 238.23 27.75C238.23 26.9333 238.043 26.1833 237.668 25.5C237.301 24.8167 236.805 24.2708 236.18 23.8625C235.555 23.4542 234.855 23.25 234.08 23.25C233.297 23.25 232.593 23.4583 231.968 23.875C231.343 24.2833 230.847 24.8292 230.48 25.5125C230.113 26.1958 229.93 26.9417 229.93 27.75C229.93 28.5833 230.118 29.3417 230.493 30.025C230.868 30.7 231.372 31.2375 232.005 31.6375C232.638 32.0292 233.33 32.225 234.08 32.225ZM241.728 29.25V21.5H243.828V28.7875C243.828 29.4208 243.982 29.9958 244.29 30.5125C244.598 31.0292 245.011 31.4417 245.528 31.75C246.053 32.05 246.628 32.2 247.253 32.2C247.886 32.2 248.457 32.05 248.965 31.75C249.482 31.4417 249.894 31.0292 250.203 30.5125C250.511 29.9958 250.665 29.4208 250.665 28.7875V21.5H252.765L252.778 34H250.678L250.665 32.4125C250.223 32.9958 249.665 33.4625 248.99 33.8125C248.315 34.1542 247.586 34.325 246.803 34.325C245.869 34.325 245.015 34.1 244.24 33.65C243.473 33.1917 242.861 32.5792 242.403 31.8125C241.953 31.0458 241.728 30.1917 241.728 29.25ZM255.289 34V21.5H257.389V23.0625C257.831 22.4792 258.389 22.0167 259.064 21.675C259.739 21.325 260.472 21.15 261.264 21.15C261.747 21.15 262.214 21.2125 262.664 21.3375L261.814 23.4375C261.472 23.3292 261.139 23.275 260.814 23.275C260.189 23.275 259.614 23.4292 259.089 23.7375C258.572 24.0375 258.16 24.4458 257.852 24.9625C257.543 25.4792 257.389 26.0542 257.389 26.6875V34H255.289ZM264.2 21.5H266.3V34H264.2V21.5ZM265.275 19.4625C264.942 19.4625 264.663 19.3542 264.438 19.1375C264.213 18.9208 264.1 18.65 264.1 18.325C264.1 18 264.213 17.7292 264.438 17.5125C264.663 17.2958 264.938 17.1875 265.263 17.1875C265.588 17.1875 265.863 17.2958 266.088 17.5125C266.313 17.7292 266.425 18 266.425 18.325C266.425 18.65 266.313 18.9208 266.088 19.1375C265.871 19.3542 265.6 19.4625 265.275 19.4625ZM275.778 23.6H272.94L272.928 34H270.828L270.84 23.6H268.69V21.5H270.84L270.828 17.575H272.928L272.94 21.5H275.778V23.6ZM283.201 34.325C282.051 34.325 281.001 34.0292 280.051 33.4375C279.11 32.8458 278.355 32.0542 277.789 31.0625C277.23 30.0625 276.951 28.9583 276.951 27.75C276.951 26.8333 277.114 25.9792 277.439 25.1875C277.764 24.3875 278.21 23.6875 278.776 23.0875C279.351 22.4792 280.018 22.0042 280.776 21.6625C281.535 21.3208 282.343 21.15 283.201 21.15C284.143 21.15 285.005 21.3417 285.789 21.725C286.58 22.1 287.255 22.625 287.814 23.3C288.38 23.975 288.801 24.7583 289.076 25.65C289.36 26.5417 289.464 27.4958 289.389 28.5125H279.189C279.289 29.2208 279.522 29.8542 279.889 30.4125C280.255 30.9625 280.722 31.4 281.289 31.725C281.864 32.05 282.501 32.2167 283.201 32.225C283.951 32.225 284.63 32.0333 285.239 31.65C285.847 31.2583 286.339 30.725 286.714 30.05L288.851 30.55C288.351 31.6583 287.597 32.5667 286.589 33.275C285.58 33.975 284.451 34.325 283.201 34.325ZM279.126 26.8625H287.276C287.21 26.1625 286.985 25.525 286.601 24.95C286.218 24.3667 285.73 23.9 285.139 23.55C284.547 23.2 283.901 23.025 283.201 23.025C282.501 23.025 281.86 23.1958 281.276 23.5375C280.693 23.8792 280.21 24.3417 279.826 24.925C279.451 25.5 279.218 26.1458 279.126 26.8625ZM295.356 34.2375C294.681 34.2125 294.023 34.0875 293.381 33.8625C292.748 33.6292 292.19 33.3167 291.706 32.925C291.231 32.525 290.886 32.0667 290.669 31.55L292.469 30.775C292.594 31.0583 292.819 31.325 293.144 31.575C293.469 31.825 293.844 32.025 294.269 32.175C294.694 32.325 295.123 32.4 295.556 32.4C296.015 32.4 296.444 32.3292 296.844 32.1875C297.244 32.0458 297.569 31.8375 297.819 31.5625C298.077 31.2792 298.206 30.9417 298.206 30.55C298.206 30.1333 298.065 29.8083 297.781 29.575C297.506 29.3333 297.156 29.1458 296.731 29.0125C296.315 28.8708 295.89 28.7375 295.456 28.6125C294.598 28.3958 293.831 28.1375 293.156 27.8375C292.481 27.5292 291.948 27.1417 291.556 26.675C291.173 26.2 290.981 25.5958 290.981 24.8625C290.981 24.0875 291.194 23.4167 291.619 22.85C292.052 22.2833 292.619 21.8458 293.319 21.5375C294.019 21.2292 294.769 21.075 295.569 21.075C296.577 21.075 297.498 21.2917 298.331 21.725C299.165 22.1583 299.786 22.7458 300.194 23.4875L298.506 24.475C298.365 24.175 298.148 23.9125 297.856 23.6875C297.565 23.4542 297.231 23.2708 296.856 23.1375C296.481 23.0042 296.098 22.9333 295.706 22.925C295.223 22.9083 294.769 22.9708 294.344 23.1125C293.927 23.2542 293.59 23.4708 293.331 23.7625C293.081 24.0458 292.956 24.4 292.956 24.825C292.956 25.2417 293.09 25.5583 293.356 25.775C293.631 25.9917 293.986 26.1667 294.419 26.3C294.861 26.425 295.34 26.5708 295.856 26.7375C296.615 26.9792 297.323 27.2583 297.981 27.575C298.64 27.8917 299.169 28.2875 299.569 28.7625C299.977 29.2375 300.177 29.825 300.169 30.525C300.169 31.2917 299.94 31.9625 299.481 32.5375C299.023 33.1042 298.427 33.5375 297.694 33.8375C296.969 34.1375 296.19 34.2708 295.356 34.2375Z" fill="#07141F"/>
</svg>
