<svg width="64" height="64" viewBox="0 0 64 64" fill="none" xmlns="http://www.w3.org/2000/svg">
<path d="M44.6316 52.4211C42.8632 52.4211 41.3684 51.8105 40.1474 50.5895C38.9263 49.3684 38.3158 47.8737 38.3158 46.1053C38.3158 44.3368 38.9263 42.8421 40.1474 41.6211C41.3684 40.4 42.8632 39.7895 44.6316 39.7895C44.9684 39.7895 45.3474 39.8211 45.7684 39.8842C46.1895 39.9474 46.6526 40.0842 47.1579 40.2947V27.1579H56V32.2105H50.9474V46.1053C50.9474 47.8737 50.3368 49.3684 49.1158 50.5895C47.8947 51.8105 46.4 52.4211 44.6316 52.4211ZM28.2105 32.2105C25.4316 32.2105 23.0526 31.2211 21.0737 29.2421C19.0947 27.2632 18.1053 24.8842 18.1053 22.1053C18.1053 19.3263 19.0947 16.9474 21.0737 14.9684C23.0526 12.9895 25.4316 12 28.2105 12C30.9895 12 33.3684 12.9895 35.3474 14.9684C37.3263 16.9474 38.3158 19.3263 38.3158 22.1053C38.3158 24.8842 37.3263 27.2632 35.3474 29.2421C33.3684 31.2211 30.9895 32.2105 28.2105 32.2105ZM8 52.4211V45.3474C8 43.8737 8.36842 42.5474 9.10526 41.3684C9.84211 40.1895 10.8211 39.2842 12.0421 38.6526C14.6526 37.3474 17.3053 36.3684 20 35.7158C22.6947 35.0632 25.4316 34.7368 28.2105 34.7368C29.9789 34.7368 31.7368 34.8737 33.4842 35.1474C35.2316 35.4211 36.9895 35.8316 38.7579 36.3789C35.9789 38.0632 34.2526 40.4737 33.5789 43.6105C32.9053 46.7474 33.4526 49.6842 35.2211 52.4211H8Z" fill="#71CCF0"/>
</svg>
