<svg width="96" height="137" viewBox="0 0 96 137" fill="none" xmlns="http://www.w3.org/2000/svg">
<path d="M48.1453 86C46.3267 86 44.8142 85.3875 43.6078 84.1626C42.4015 82.9376 41.7983 81.4212 41.7983 79.6134C41.7983 78.31 42.1531 77.1326 42.8627 76.0813C43.5724 75.0299 44.5658 74.2913 45.8431 73.8655V61.0924H34.3473C31.9754 61.0924 29.9987 60.3055 28.4171 58.7318C26.8356 57.158 26.0448 55.1906 26.0448 52.8295V45.9776C24.7675 45.4099 23.774 44.6116 23.0644 43.5826C22.3548 42.5537 22 41.436 22 40.2297C22 38.4219 22.6164 36.9056 23.8491 35.6806C25.0818 34.4556 26.6075 33.8431 28.4262 33.8431C30.2448 33.8431 31.7572 34.4556 32.9636 35.6806C34.1699 36.9056 34.7731 38.4219 34.7731 40.2297C34.7731 41.436 34.436 42.6069 33.7619 43.7423C33.0878 44.8777 32.1475 45.6228 30.9412 45.9776V52.7899C30.9412 53.6415 31.296 54.422 32.0056 55.1317C32.7152 55.8413 33.4958 56.1961 34.3473 56.1961H45.7367V21.7087H38.1793L48.1849 10L58.1905 21.7087H50.6331V56.1961H62.0224C62.874 56.1961 63.6545 55.8413 64.3641 55.1317C65.0738 54.422 65.4286 53.6415 65.4286 52.7899V46.6162H61.4902V33.8431H74.2633V46.6162H70.3249V52.7899C70.3249 55.1618 69.5342 57.1386 67.9526 58.7202C66.3711 60.3017 64.3943 61.0924 62.0224 61.0924H50.7395V73.8655C51.9529 74.299 52.895 75.0621 53.5655 76.1546C54.2361 77.2471 54.5714 78.398 54.5714 79.6072C54.5714 81.4404 53.9551 82.9642 52.7223 84.1785C51.4896 85.3928 49.964 86 48.1453 86Z" fill="white"/>
<path d="M33.1811 131.325C31.7811 131.325 30.5644 130.983 29.5311 130.3C28.5061 129.617 27.7144 128.7 27.1561 127.55C26.6061 126.392 26.3311 125.108 26.3311 123.7V113.5H28.4311V123.7C28.4311 124.7 28.6144 125.621 28.9811 126.462C29.3561 127.304 29.8936 127.975 30.5936 128.475C31.3019 128.975 32.1644 129.225 33.1811 129.225C34.2144 129.225 35.0811 128.975 35.7811 128.475C36.4811 127.967 37.0102 127.296 37.3686 126.462C37.7352 125.621 37.9186 124.7 37.9186 123.7V113.5H40.0186V123.7C40.0186 124.758 39.8602 125.75 39.5436 126.675C39.2269 127.592 38.7686 128.4 38.1686 129.1C37.5769 129.8 36.8602 130.346 36.0186 130.737C35.1769 131.129 34.2311 131.325 33.1811 131.325ZM49.1928 131.325C48.2511 131.325 47.3428 131.179 46.4678 130.887C45.5928 130.587 44.8261 130.162 44.1678 129.612C43.5178 129.062 43.0553 128.408 42.7803 127.65L44.7428 126.912C44.9094 127.379 45.2178 127.787 45.6678 128.137C46.1261 128.479 46.6636 128.746 47.2803 128.937C47.8969 129.129 48.5344 129.225 49.1928 129.225C49.9428 129.225 50.6386 129.104 51.2803 128.862C51.9303 128.612 52.4553 128.267 52.8553 127.825C53.2553 127.383 53.4553 126.867 53.4553 126.275C53.4553 125.667 53.2469 125.171 52.8303 124.787C52.4136 124.396 51.8803 124.087 51.2303 123.862C50.5803 123.629 49.9011 123.45 49.1928 123.325C47.9844 123.125 46.9011 122.842 45.9428 122.475C44.9928 122.1 44.2386 121.579 43.6803 120.912C43.1303 120.246 42.8553 119.367 42.8553 118.275C42.8553 117.258 43.1469 116.371 43.7303 115.612C44.3219 114.854 45.1011 114.267 46.0678 113.85C47.0344 113.433 48.0761 113.225 49.1928 113.225C50.1178 113.225 51.0136 113.371 51.8803 113.662C52.7553 113.946 53.5261 114.362 54.1928 114.912C54.8594 115.462 55.3386 116.133 55.6303 116.925L53.6428 117.65C53.4761 117.175 53.1636 116.767 52.7053 116.425C52.2553 116.075 51.7219 115.808 51.1053 115.625C50.4969 115.433 49.8594 115.337 49.1928 115.337C48.4511 115.329 47.7594 115.45 47.1178 115.7C46.4761 115.95 45.9553 116.296 45.5553 116.737C45.1553 117.179 44.9553 117.692 44.9553 118.275C44.9553 118.975 45.1386 119.512 45.5053 119.887C45.8803 120.254 46.3886 120.529 47.0303 120.712C47.6719 120.896 48.3928 121.058 49.1928 121.2C50.3261 121.392 51.3761 121.696 52.3428 122.112C53.3094 122.521 54.0844 123.067 54.6678 123.75C55.2594 124.433 55.5553 125.275 55.5553 126.275C55.5553 127.292 55.2594 128.179 54.6678 128.937C54.0844 129.696 53.3094 130.283 52.3428 130.7C51.3761 131.117 50.3261 131.325 49.1928 131.325ZM58.5332 131V113.5H64.5707C65.4374 113.5 66.2249 113.679 66.9332 114.037C67.6499 114.387 68.2165 114.9 68.6332 115.575C69.0499 116.25 69.2582 117.058 69.2582 118C69.2582 118.508 69.1707 119 68.9957 119.475C68.829 119.942 68.5957 120.346 68.2957 120.687C68.004 121.021 67.6707 121.246 67.2957 121.362C67.8207 121.496 68.2665 121.733 68.6332 122.075C68.9999 122.408 69.2957 122.8 69.5207 123.25C69.754 123.7 69.9207 124.171 70.0207 124.662C70.1207 125.154 70.1707 125.629 70.1707 126.087C70.1707 127.054 69.9499 127.908 69.5082 128.65C69.0749 129.383 68.4915 129.958 67.7582 130.375C67.0249 130.792 66.2165 131 65.3332 131H58.5332ZM60.6332 129.15H65.1457C65.7207 129.15 66.2415 129.004 66.7082 128.712C67.1832 128.412 67.5624 128.004 67.8457 127.487C68.129 126.971 68.2707 126.387 68.2707 125.737C68.2707 125.162 68.129 124.621 67.8457 124.113C67.5624 123.596 67.1832 123.179 66.7082 122.862C66.2415 122.546 65.7207 122.387 65.1457 122.387H60.6332V129.15ZM60.6332 120.575H64.3707C65.1374 120.575 65.7915 120.35 66.3332 119.9C66.8832 119.442 67.1582 118.804 67.1582 117.987C67.1582 117.104 66.8832 116.446 66.3332 116.012C65.7915 115.571 65.1374 115.35 64.3707 115.35H60.6332V120.575Z" fill="white"/>
</svg>
